<svg xmlns="http://www.w3.org/2000/svg" viewBox="0 0 538.75 356.06"><defs><style>.cls-1{fill:#ece3ff;}.cls-2{fill:#6c47d4;}.cls-10,.cls-16,.cls-17,.cls-18,.cls-19,.cls-20,.cls-3{fill:none;}.cls-10,.cls-16,.cls-19,.cls-20,.cls-3{stroke:#20181f;stroke-linecap:round;stroke-linejoin:round;}.cls-3{stroke-width:1.05px;}.cls-4{fill:#fff;}.cls-5{fill:#f9a9a3;}.cls-6{fill:#4d2e3c;}.cls-7{fill:#e88585;}.cls-8{fill:#fca0a0;}.cls-9{fill:#20181f;}.cls-10{stroke-width:1.23px;}.cls-11{fill:#f4eded;}.cls-12{fill:#ee75ae;}.cls-13{fill:#4684e6;}.cls-14{fill:#ed908e;}.cls-15{fill:#f7de9e;}.cls-16{stroke-width:1.18px;}.cls-17,.cls-18{stroke:#fff;stroke-miterlimit:10;}.cls-17{stroke-width:1.34px;}.cls-18{stroke-width:1.32px;}.cls-19{stroke-width:1.25px;}.cls-20{stroke-width:1.2px;}</style></defs><g id="Layer_2" data-name="Layer 2"><g id="OBJECTS"><path class="cls-1" d="M526.47,222.62s-79.33,183.72-361.79,102.7S22,63.35,149.81,121.07,388.19,94.84,388.19,94.84s74.89-48.8,130,13.57C518.14,108.41,558.34,148.87,526.47,222.62Z"/><path class="cls-1" d="M357.55,45.56s9.35,54.75-92.52,58.68S116.73,32.89,150,12.28c29.11-18,67.49,8.94,108.49-5.72C311.11-12.27,357.69,12.13,357.55,45.56Z"/><path class="cls-2" d="M150.58,285.58l-9.79,69.88H105.73c2.53-45.16,7.12-117,12.22-147.53l25.28,44.21Z"/><path class="cls-2" d="M182.4,209c8.67,39,16.86,104,21.71,146.48H164.87l-15.35-69.88-6.29-33.44L118,207.93Z"/><polyline class="cls-3" points="150.03 288.25 143.91 250.28 134.37 243.99"/><path class="cls-4" d="M169.52,129.07a14.86,14.86,0,0,1,20-3L252,163.92a16,16,0,0,1,4.52,21.76h0c-5,7.9-11.27,9.51-18.74,3.91-6.63-5-65-35.47-69.74-39.08C161.32,145.47,164.28,135.61,169.52,129.07Z"/><path class="cls-4" d="M191.59,223.68l44.53-55a13.32,13.32,0,0,1,19.27-.49h0c5.45,5.43,4.06,16-1.7,21.06l-51,44.06Z"/><path class="cls-5" d="M165,227.59l13.21-7.35-1.43-2.9a2.62,2.62,0,0,1,3.87-3.29l13.09,9.29,8.93,10c-7,6.5-11.79,6.6-14.58,5.49-.31.12-.63.25-.95.36l-11.07,3.62a2.12,2.12,0,0,1-2.78-.89c-.4-.72-.57-1.88,1.54-3.06l-2.11,1.18a2.22,2.22,0,0,1-2.92-1c-.52-.93,0-2.21,1.26-3.08l-1.62.71a2.28,2.28,0,0,1-3.1-1.23,2.35,2.35,0,0,1,1.12-2.87l2.34-1.3-2.8.79a2.47,2.47,0,0,1-3.24-1.48A2.56,2.56,0,0,1,165,227.59Z"/><path class="cls-4" d="M129.06,129c-4.2-6.05-11.71-7.33-17.23-3L58,164c-6.14,4.87-7.84,14.49-3.85,21.77h0c4.32,7.89,9.75,9.49,16.18,3.88,5.71-5,56-35.61,60.09-39.22C136.17,145.37,133.59,135.52,129.06,129Z"/><path class="cls-4" d="M110.23,223.64,71.67,168.78c-4.42-5.62-12-5.83-16.64-.45h0c-4.69,5.43-3.46,16,1.52,21l44.13,44Z"/><path class="cls-5" d="M133.17,227.5l-11.41-7.33,1.22-2.9a2.92,2.92,0,0,0-.53-3.12,2,2,0,0,0-2.81-.17l-11.28,9.33-7.68,10c6.09,6.49,10.19,6.58,12.59,5.47l.82.35,9.57,3.6a1.72,1.72,0,0,0,2.4-.9c.34-.71.48-1.88-1.34-3.05l1.82,1.17a1.8,1.8,0,0,0,2.52-1,2.73,2.73,0,0,0-1.09-3.08l1.4.7a1.88,1.88,0,0,0,2.67-1.23,2.52,2.52,0,0,0-1-2.87l-2-1.29,2.42.78a2,2,0,0,0,2.79-1.48A2.71,2.71,0,0,0,133.17,227.5Z"/><path class="cls-4" d="M185.57,124.19S170,118,146.5,118,109,128.29,109,128.29L118,207.93l64.45,1,10.65-57.29Z"/><line class="cls-3" x1="112.82" y1="162.02" x2="111.37" y2="149.09"/><path class="cls-6" d="M173.4,77.12s14.74-22.51-3-25.11c-10.6-1.54-13.66-4.87-26.62-9.41-15-5.25-35.63,11.54-13.39,28.18l34.76-7.57Z"/><circle class="cls-7" cx="134.11" cy="82.05" r="8.08" transform="translate(-18.74 118.86) rotate(-45)"/><path class="cls-8" d="M141.93,92l-.4,27.77c-.06,7.81,5.3,8.39,13,8.39h0c6.57,0,9.9-2.37,10.71-8.88l-1.08-29.52Z"/><polygon class="cls-9" points="141.56 116.93 159.81 103.84 141.81 98.67 141.56 116.93"/><path class="cls-8" d="M150.28,106.17h-1.56a18.92,18.92,0,0,1-18.91-19.54l.64-19.41a19.72,19.72,0,0,1,19.71-19.07h0c10.89,0,21.63,8.83,21.63,19.72l-.94,18.73A20.59,20.59,0,0,1,150.28,106.17Z"/><polyline class="cls-10" points="140.96 80.28 139.66 87.65 142.26 87.65"/><path class="cls-9" d="M151.14,71.66s-4.36-.51-4.47,1.3c0,0,0,1.23,3.78,1.6s4.8.12,5.19-1S153.19,71.74,151.14,71.66Z"/><path class="cls-9" d="M134.43,71.56s3.62-.26,3.86,1.45c0,0,.14,1.16-3,1.32s-4.19-.29-4.45-1.23S132.71,71.53,134.43,71.56Z"/><path class="cls-4" d="M139.2,91h12.22s0,4.28-7.07,4.29A4.92,4.92,0,0,1,139.2,91Z"/><path class="cls-10" d="M147.37,80.28a4.82,4.82,0,0,1,5,0"/><path class="cls-10" d="M132.73,80.28s1.43-1.55,4.32,0"/><path class="cls-6" d="M168.26,82.12s-12.41-7.89-8-19c0,0-20.12-9.71-29.37.41L128.45,50.6l15.89-6.43L169.22,54l6.42,9.59L173.48,76Z"/><circle class="cls-8" cx="173.39" cy="82.05" r="8.08" transform="translate(-18.22 72.99) rotate(-22.62)"/><path class="cls-10" d="M170.57,84.45s0-5.86,5.6-4.94"/><polygon class="cls-2" points="160.2 128.75 153.72 134.73 146.53 126.52 153.72 125.39 160.2 128.75"/><polygon class="cls-2" points="155.02 133.5 162.09 192.51 153.53 202.24 145.77 192.39 152.64 133.26 155.02 133.5"/><polygon class="cls-11" points="165.12 116.58 153.72 125.39 161.33 134.73 172.54 120.59 165.12 116.58"/><polygon class="cls-11" points="141.56 116.93 153.72 125.39 146.12 134.73 134.55 120.59 141.56 116.93"/><path class="cls-4" d="M380.68,134a10.62,10.62,0,0,0-20.77-4.46c-1,4.17-1.7,11.5-2.36,19.31l21.86,6.67Z"/><path class="cls-5" d="M379.41,155.52l-21.86-6.67L354.66,179a10.26,10.26,0,0,0,9,11.05l.2,0h0a11.44,11.44,0,0,0,13-9.17Z"/><path class="cls-5" d="M347.08,263.57l8.51-94.3s4,.94,9.35,1.8h0a9.52,9.52,0,0,1,7.78,11.5l-14,81.2Z"/><path class="cls-5" d="M361.73,262a11.43,11.43,0,1,0-6.46,14.82A11.43,11.43,0,0,0,361.73,262Z"/><path class="cls-5" d="M344.75,274.92s-3,3.32-5.66-2.08-2.52-12.27,7.82-17.3Z"/><path class="cls-12" d="M416,71.32,371.11,81.5s-16.69,23.67-8.06,57.53h74.49s6.07-13.63-7.39-32.5C421.88,94.94,416,71.32,416,71.32"/><path class="cls-13" d="M390.26,300,379,355.46H340.11c2.24-18.29,5.58-42.17,10.54-71.73,13.16-78.56,21.56-97.44,21.56-97.44L401.44,181l3.23,4.71-25.28.79Z"/><path class="cls-13" d="M404.67,185.75,416,185.4S435.22,206,436.22,244c.67,25.36,0,74.53-.73,111.5H395.56L390.26,300l-10.87-113.5Z"/><line class="cls-3" x1="390.26" y1="300.04" x2="385.12" y2="225.05"/><line class="cls-3" x1="385.12" y1="225.05" x2="376.02" y2="217.91"/><path class="cls-4" d="M393.93,119.09l27.8,3.89a5.74,5.74,0,0,1,4.86,6.68L417,186.29H372.21L360.54,131.9a8.53,8.53,0,0,1,7.47-10Z"/><line class="cls-3" x1="364.64" y1="151.01" x2="361.4" y2="136.96"/><path class="cls-5" d="M445.88,132.81l-10.09,27.94s31.22,10.51,38.08,14.7c7.74,4.72,13.67,2.58,17.76-5.51h0a15.54,15.54,0,0,0-6.38-20.62Z"/><path class="cls-4" d="M426.36,124.63a14.42,14.42,0,0,0-19,4.74c-4.46,6.8-6.42,16.6.51,20.86,5,3.05,27.93,10.52,27.93,10.52l10.09-27.94Z"/><line class="cls-3" x1="422.55" y1="156.23" x2="412.67" y2="152.19"/><path class="cls-5" d="M432.4,212.64l38-57.21A12.93,12.93,0,0,1,489,153.18h0c5.77,4.74,5.39,15.06.29,20.51L444,221Z"/><path class="cls-5" d="M407.07,218.88l12.09-8.32-1.65-2.68a2.54,2.54,0,0,1,3.43-3.54l13.52,7.78L444,221c-6.21,6.94-10.8,7.47-13.6,6.66-.29.14-.58.3-.88.43l-10.37,4.52a2.06,2.06,0,0,1-2.77-.6c-.45-.66-.73-1.77,1.21-3.1l-1.94,1.33a2.14,2.14,0,0,1-2.91-.68c-.58-.85-.17-2.14.94-3.09l-1.51.83a2.2,2.2,0,0,1-3.1-.9,2.28,2.28,0,0,1,.82-2.88l2.14-1.47-2.64,1a2.39,2.39,0,0,1-3.26-1.14A2.47,2.47,0,0,1,407.07,218.88Z"/><path class="cls-14" d="M377.72,82.12a7.88,7.88,0,1,1-8.41-7.31A7.88,7.88,0,0,1,377.72,82.12Z"/><path class="cls-12" d="M389.54,53.41c-1-1.75.28-5,.28-5,9.85,0,18.35,3.15,23.25,12.15,7.2,13.25,2,33.72-15,39.95-16.26,6-7.6-45.41-7.6-45.41Z"/><path class="cls-5" d="M380.25,103.76l1.09,17.13c.37,6,4.28,9,10.19,8.59h0c5.05-.35,9.62-3.29,9.9-8.34l-3-26.88Z"/><polygon class="cls-9" points="381 118.04 401.02 98.44 380.1 102.01 381 118.04"/><path class="cls-5" d="M385.46,106.53h0c-10.12,0-18.47-7.94-18.77-16.2l-.6-19.5A19.21,19.21,0,0,1,384,51h0c7.78-.54,21.89,11,22.35,17.7l.31,15.69C406.85,96.49,397.57,105.69,385.46,106.53Z"/><path class="cls-15" d="M389.87,48.41l-.14,0Z"/><path class="cls-12" d="M366.49,66.17C366.06,56,375,49.63,381.67,48a30.38,30.38,0,0,1,16.8.64c6.47,2.17,13.46,7,8.7,17.6,3.12,1.54,5.9,3.3,5.9,3.3L401.43,83.47s-.85-3.83-2.06-12c-6.08-2.4-5.85-6-6.47-9.77A103.72,103.72,0,0,1,366.49,66.17Z"/><path class="cls-5" d="M416.06,82.12a7.87,7.87,0,1,1-8.4-7.31A7.87,7.87,0,0,1,416.06,82.12Z"/><path class="cls-16" d="M405.62,85.19s-.4-5.69,5.11-5.18"/><polyline class="cls-16" points="377.69 83.32 377.07 88.47 379.73 88.57"/><path class="cls-9" d="M389.39,72.74s-4.54-.37-4.58,1.48c0,0,0,1.25,4,1.5s5,0,5.36-1.22S391.52,72.75,389.39,72.74Z"/><path class="cls-9" d="M371.11,73.24s3.74-.39,4.05,1.35c0,0,.18,1.17-3.1,1.44s-4.35-.15-4.66-1.1S369.32,73.26,371.11,73.24Z"/><path class="cls-9" d="M389.69,80.62A1.71,1.71,0,1,1,387.93,79,1.71,1.71,0,0,1,389.69,80.62Z"/><path class="cls-9" d="M374,80.62A1.71,1.71,0,1,1,372.19,79,1.71,1.71,0,0,1,374,80.62Z"/><path class="cls-16" d="M378.28,93.12s5.66,1.58,8.59-2.52"/><line class="cls-17" x1="376.64" y1="79.66" x2="380.45" y2="79.66"/><line class="cls-17" x1="396.25" y1="79.66" x2="401.02" y2="79.66"/><circle class="cls-17" cx="388.39" cy="79.51" r="7.85" transform="translate(221.49 439.11) rotate(-76.67)"/><circle class="cls-18" cx="369.29" cy="79.03" r="7.38" transform="translate(52.28 284.28) rotate(-45)"/><path class="cls-6" d="M243.07,212.83l69.17,2.87c7.34,29.08,11.2,94.19,13.09,139.76H280.16l-7.6-59.15-10.23,59.15H220C227.5,304.54,239.23,226.74,243.07,212.83Z"/><polyline class="cls-3" points="272.56 296.31 266.89 252.7 253.4 246.23"/><path class="cls-2" d="M333.12,126.4s-31.48-11.64-59.29-12.58c0,0-14.8-.94-39.92,5.76a1.94,1.94,0,0,0-1.41,2.07l10.57,91.18,69.46,2.87Z"/><polygon class="cls-2" points="301.73 209.87 229.66 178.4 275.64 171.27 302.74 181.65 301.73 209.87"/><path class="cls-2" d="M343.32,148.2c-3.81,16.32-19.64,52-19.64,52a16.83,16.83,0,0,1-21.95,9.7h0a16.85,16.85,0,0,1-9.55-21.63L311.9,136.3a16.81,16.81,0,0,1,23-9.2h0C342.73,130.87,345.31,139.7,343.32,148.2Z"/><line class="cls-3" x1="302.16" y1="161.95" x2="310.86" y2="139.03"/><path class="cls-2" d="M250.22,147.68c-10,13.44-36.71,35.65-36.71,35.65a16.84,16.84,0,0,1-24,.12h0c-6.49-6.54-6.53-15-.1-21.59l36.78-37.65a16.79,16.79,0,0,1,24.71.75h0C256.61,131.56,255.44,140.69,250.22,147.68Z"/><path class="cls-8" d="M237.94,157.5s-1.58-8.56-14.14-11.59l-13.44,9.43,4.77,4.2Z"/><polygon class="cls-8" points="285.64 155.34 302.16 161.95 295.7 178.96 286.71 175.51 285.64 155.34"/><polygon class="cls-2" points="285.64 155.34 194.12 160.8 199.74 188.32 286.71 175.51 285.64 155.34"/><polyline class="cls-3" points="285.64 155.34 237.94 157.5 234.65 134.31"/><polyline class="cls-3" points="285.64 202.85 239.76 182.77 286.71 175.51"/><path class="cls-6" d="M288.28,42.7c4.77.31,20.94,4.12,15.53,20.11C297.27,82.14,294,84.6,294,84.6l.55-28.74Z"/><path class="cls-6" d="M256.73,44.06s-18.9,5.54-5,26.33l19.18-21.68Z"/><path class="cls-7" d="M262.35,76.92a8.07,8.07,0,0,1-7.76,8.32,8.16,8.16,0,1,1,7.76-8.32Z"/><path class="cls-8" d="M264,93.58l-1.07,21.23c-.37,7.17,3.75,10.4,10.59,10.67h0c5.84.24,12.39-2.27,12.45-8.61l.12-32.2Z"/><path class="cls-9" d="M263,111.5l24.71-16c.71-6.09-23.71-4-23.71-4Z"/><path class="cls-8" d="M271.17,102.29h0c-11.12-.53-19.83-10-19.69-19.42l.41-19.64c.19-11.76,9.37-21.29,20.77-21.52h0C284.32,41.46,296,51,296.18,63l-.5,15.3C295.24,92.1,284.51,102,271.17,102.29Z"/><path class="cls-9" d="M275.23,62.93s-6-1.2-6.23.55c0,0-.13,1.18,3.48,1.82s6.45.85,6.91-.23S277.18,63.15,275.23,62.93Z"/><path class="cls-9" d="M257.89,65.26s-5.3.16-5.14,1.91c0,0-.67,1.2,3,1s5.46-.54,5.67-1.7S259.85,65.05,257.89,65.26Z"/><path class="cls-19" d="M272.29,84.65c0,.32-3.29,3.19-7.85,1.78"/><path class="cls-9" d="M258.76,73.55A1.84,1.84,0,1,1,257,71.67,1.85,1.85,0,0,1,258.76,73.55Z"/><path class="cls-9" d="M275.88,74.49a1.83,1.83,0,1,1-3.66.23,1.83,1.83,0,0,1,3.66-.23Z"/><path class="cls-19" d="M263.36,76.12l-2.54,4.49a.75.75,0,0,0,.14,1l1.57.85"/><path class="cls-6" d="M290.43,77s3.47-16.16-4-24.36c0,0-31,9.39-35.74-3.2-6.8-17.87,12.82-23.24,24-17.91a36.38,36.38,0,0,1,13.6,11.17s21.11,4.57,9.68,27.84Z"/><path class="cls-8" d="M305.91,78.45a8,8,0,0,1-7.69,8.24,8.08,8.08,0,1,1,7.69-8.24Z"/><path class="cls-19" d="M295.45,80.6s.73-5.26,5.34-5"/><path class="cls-8" d="M285.64,114.79,293.9,116s-10,8.28-29.41,14l-6.68-15.27,11.52-1.48Z"/><line class="cls-20" x1="526.48" y1="355.46" x2="10.13" y2="355.46"/></g></g></svg>