<svg xmlns="http://www.w3.org/2000/svg" xmlns:xlink="http://www.w3.org/1999/xlink" viewBox="0 0 1920.93 1081.52"><defs><style>.cls-1{isolation:isolate;}.cls-2{fill:url(#linear-gradient);}.cls-3,.cls-4,.cls-5,.cls-6{mix-blend-mode:multiply;}.cls-3,.cls-4,.cls-5,.cls-6,.cls-7{opacity:0.38;}.cls-3{fill:url(#linear-gradient-2);}.cls-4{fill:url(#linear-gradient-3);}.cls-5{fill:url(#linear-gradient-4);}.cls-6{fill:url(#linear-gradient-5);}.cls-7{mix-blend-mode:screen;fill:url(#linear-gradient-6);}</style><linearGradient id="linear-gradient" y1="540.76" x2="1920.93" y2="540.76" gradientUnits="userSpaceOnUse"><stop offset="0" stop-color="#228b22"/><stop offset="0.11" stop-color="#228b22"/><stop offset="0.35" stop-color="#228b22"/><stop offset="0.57" stop-color="#228b22"/><stop offset="0.76" stop-color="#228b22"/><stop offset="0.91" stop-color="#228b22"/><stop offset="1" stop-color="##228b22"/></linearGradient><linearGradient id="linear-gradient-2" x1="849" y1="540.76" x2="1920.93" y2="540.76" gradientUnits="userSpaceOnUse"><stop offset="0" stop-color="#228b22"/><stop offset="1" stop-color="#228b22"/></linearGradient><linearGradient id="linear-gradient-3" x1="1159.81" y1="886.31" x2="1920.93" y2="886.31" xlink:href="#linear-gradient-2"/><linearGradient id="linear-gradient-4" x1="0" y1="302.53" x2="451.79" y2="302.53" xlink:href="#linear-gradient-2"/><linearGradient id="linear-gradient-5" x1="0" y1="1023.73" x2="617.81" y2="1023.73" xlink:href="#linear-gradient-2"/><linearGradient id="linear-gradient-6" x1="0" y1="147.99" x2="206.6" y2="147.99" xlink:href="#linear-gradient-2"/></defs><g class="cls-1"><g id="Layer_2" data-name="Layer 2"><g id="Layer_2-2" data-name="Layer 2"><rect class="cls-2" width="1920.93" height="1081.52"/><path class="cls-3" d="M1920.93,0V1081.52H1064.6C706.13,602.08,1449,315.83,849,0Z"/><path class="cls-4" d="M1920.93,856.41v225.11h-739C1093.55,879.64,1280.24,676,1561.75,692,1709.82,700.41,1838.79,766.27,1920.93,856.41Z"/><path class="cls-5" d="M451.79,0C416.11,291,234.68,488,0,605.06V0Z"/><path class="cls-6" d="M617.81,1081.52H0V973.67C231.3,945.47,448.4,997.55,617.81,1081.52Z"/><path class="cls-7" d="M206.6,0C191.46,131,108.11,229.55,0,296V0Z"/></g></g></g></svg>