<svg id="Layer_1" data-name="Layer 1" xmlns="http://www.w3.org/2000/svg" viewBox="0 0 1080 1080"><defs><style>.cls-1{fill:#171717;}.cls-2,.cls-3,.cls-4,.cls-5{fill:none;stroke:#644ffc;stroke-linecap:round;}.cls-2,.cls-3,.cls-5{stroke-miterlimit:10;}.cls-2,.cls-4{stroke-width:40px;}.cls-3{stroke-width:9px;}.cls-4{stroke-linejoin:round;}.cls-5{stroke-width:0.75px;}.cls-6,.cls-7{fill:#e8e6ff;}.cls-7{font-size:39.34px;font-family:Poppins-SemiBold, Poppins;font-weight:600;}.cls-8{font-size:24px;}</style></defs><rect class="cls-1" width="1080" height="1080"/><polygon class="cls-2" points="771.33 1148.07 362.77 -70.91 808.16 -70.91 1223.42 1148.07 771.33 1148.07"/><line class="cls-3" x1="590.63" y1="618.95" x2="161.84" y2="734.49"/><line class="cls-3" x1="545.85" y1="475.33" x2="949.2" y2="343.11"/><polyline class="cls-3" points="523.69 409.22 651.49 361.34 921.01 260.37"/><line class="cls-3" x1="575.42" y1="136.72" x2="651.49" y2="361.34"/><line class="cls-3" x1="479.04" y1="276.02" x2="1143.05" y2="34.58"/><line class="cls-3" x1="540" y1="457.89" x2="94.86" y2="573.74"/><polyline class="cls-4" points="294.12 1148.07 66.39 475.33 26.21 276.02 -30.72 66.39"/><line class="cls-3" x1="629.81" y1="725.84" x2="317.43" y2="826.58"/><polyline class="cls-3" points="674.9 860.39 304.16 977.28 354.39 1138.02"/><line class="cls-3" x1="732.12" y1="1031.09" x2="973.93" y2="950.49"/><polyline class="cls-3" points="613.45 654.12 696.3 628.27 1012.71 529.55"/><polyline class="cls-3" points="838.3 591.83 838.3 607.23 732.12 648.67 696.3 628.27"/><line class="cls-3" x1="1020.99" y1="553.86" x2="1355.7" y2="431.42"/><polyline class="cls-3" points="462.8 227.55 317.43 260.37 248.07 276.02 161.84 303.33 24.54 343.11 -63.37 361.34"/><polyline class="cls-3" points="498.74 334.79 333.46 376.16 217.93 396.26 117.47 431.42 -63.37 457.88"/><line class="cls-3" x1="317.43" y1="302.07" x2="333.47" y2="376.16"/><polyline class="cls-3" points="575.42 553.86 741.61 501.74 889.79 457.88 985.23 422.63"/><polyline class="cls-3" points="398.12 34.58 262.3 66.39 171.88 86.49 83.14 116.63 -20.67 136.72"/><line class="cls-3" x1="732.12" y1="175.23" x2="629.81" y2="-137.88"/><line class="cls-3" x1="926.35" y1="276.02" x2="1196.63" y2="175.23"/><line class="cls-3" x1="674.9" y1="826.58" x2="1080" y2="702.67"/><polyline class="cls-3" points="994.02 734.49 1040.91 839.98 1061.49 942.12 1148.12 927.03"/><line class="cls-3" x1="188.72" y1="85.65" x2="208.72" y2="207.05"/><line class="cls-3" x1="94.86" y1="112.65" x2="123.33" y2="227.55"/><polyline class="cls-3" points="252.77 390.2 267.33 434.77 298.3 434.77"/><line class="cls-3" x1="798.9" y1="788.66" x2="830.49" y2="889.65"/><line class="cls-3" x1="843.88" y1="778.58" x2="872.91" y2="889.65"/><line class="cls-3" x1="898.41" y1="758.22" x2="872.91" y2="667.51"/><rect class="cls-5" x="575.42" y="343.24" width="54.39" height="19.53" transform="translate(-82.83 219.12) rotate(-19.31)"/><polygon class="cls-5" points="458.77 950.49 478.86 1020.81 489.53 1020.81 491.7 1031.09 527.42 1024.16 527.42 1009.09 543.61 1006.3 546.95 1015.79 663.05 978.95 657.47 950.49 629.81 955.51 621.19 924.26 646.86 918.94 636.81 881.84 525.74 916.44 526.3 932.63 458.77 950.49"/><path class="cls-6" d="M616.13,350.82c5.78-7.24,19-24.79,19-34.65a21.66,21.66,0,0,0-43.31,0c0,9.86,13.2,27.41,19,34.65a3.42,3.42,0,0,0,5.35,0Zm-2.68-27.43a7.22,7.22,0,1,1,7.22-7.22A7.22,7.22,0,0,1,613.45,323.39Z"/><path class="cls-6" d="M570.67,962c4.42-5.53,14.51-19,14.51-26.49a16.56,16.56,0,1,0-33.11,0c0,7.54,10.09,21,14.51,26.49a2.61,2.61,0,0,0,4.09,0Zm-2-21a5.52,5.52,0,1,1,5.51-5.52A5.52,5.52,0,0,1,568.63,941Z"/><text class="cls-7" transform="translate(523.69 276.02)">Arceus <tspan class="cls-8" x="148.83" y="0">BPO PVT</tspan></text><text class="cls-7" transform="translate(479.04 881.84)">Majestic city</text></svg>