<?xml version="1.0" encoding="utf-8"?>
<!-- Generator: Adobe Illustrator 27.6.1, SVG Export Plug-In . SVG Version: 6.00 Build 0)  -->
<svg version="1.1" id="Layer_1" xmlns="http://www.w3.org/2000/svg" xmlns:xlink="http://www.w3.org/1999/xlink" x="0px" y="0px"
	 viewBox="0 0 796.1 775.4" style="enable-background:new 0 0 796.1 775.4;" xml:space="preserve">
<style type="text/css">
	.st0{fill:#D8D0D0;}
	.st1{fill:#FFFFFF;}
	.st2{fill:none;stroke:#FFFFFF;stroke-miterlimit:10;}
	.st3{opacity:0.2;}
	.st4{fill:#808080;}
	.st5{fill:#121929;}
	.st6{fill:#29364B;}
	.st7{fill:#4470C2;}
	.st8{fill:#1B3B8B;}
	.st9{fill:#CDD9F2;}
	.st10{fill:#FF4A4A;}
	.st11{fill:#86ABF4;}
	.st12{opacity:0.1;}
	.st13{fill:#9BBFFF;}
	.st14{fill:#C9DEFF;}
	.st15{fill:#EBF3FF;}
	.st16{opacity:0.3;}
	.st17{fill:#CCCCCC;}
	.st18{opacity:3.000000e-02;}
	.st19{fill:#214C9E;}
	.st20{fill:#FFC597;}
	.st21{fill:none;stroke:#4470C2;stroke-width:0.2;stroke-miterlimit:10;}
	.st22{fill:#FC3C3C;}
	.st23{fill:#1C2838;}
	.st24{fill:#2A5DB0;}
</style>
<g>
	<g>
		<g>
			<path class="st0" d="M655.4,449.5L585.1,409l-52.3,18.9c-22.8-7.9-47.2-13.7-72.3-17.3l-14.2-34.8l-99.1,0l-13.8,34.8
				c-25.1,3.6-49.4,9.4-72.1,17.3L208.9,409L139,449.6l32.8,30.3c-13.6,13.2-23.6,27.3-29.7,41.8l-60.1,8.1l0.4,57.4l60.1,8.1
				c6.3,14.5,16.3,28.6,30.1,41.8l-32.4,30.3l70.3,40.6l52.3-18.9c22.8,7.9,47.2,13.7,72.3,17.3l14.1,34.8l99.1,0l13.8-34.8
				c25.1-3.6,49.4-9.4,72.2-17.3l52.4,18.9l69.9-40.6l-32.8-30.3c13.6-13.2,23.5-27.3,29.7-41.9l60.1-8.1l-0.4-57.4l-60.1-8.1
				c-6.3-14.5-16.4-28.6-30.2-41.8L655.4,449.5z"/>
		</g>
		<polygon class="st0" points="655.4,449.5 655.4,429 623,459.4 623,479.9 		"/>
		<polygon class="st0" points="139,429 139,449.6 171.9,479.9 171.9,459.4 		"/>
		<g>
			<path class="st1" d="M655.4,429l-70.3-40.6l-52.3,18.9c-22.8-7.9-47.2-13.7-72.3-17.3l-14.2-34.8l-99.1,0L333.5,390
				c-25.1,3.6-49.4,9.4-72.1,17.3l-52.4-18.9L139,429l32.8,30.3c-13.6,13.2-23.6,27.3-29.7,41.8l-60.1,8.1l0.4,57.4l60.1,8.1
				c6.3,14.5,16.3,28.6,30.1,41.8l-32.4,30.3l70.3,40.6l52.3-18.9c22.8,7.9,47.2,13.7,72.3,17.3l14.1,34.8l99.1,0l13.8-34.8
				c25.1-3.6,49.4-9.4,72.2-17.3l52.4,18.9l69.9-40.6l-32.8-30.3c13.6-13.2,23.5-27.3,29.7-41.9l60.1-8.1l-0.4-57.4l-60.1-8.1
				c-6.3-14.5-16.4-28.6-30.2-41.8L655.4,429z"/>
		</g>
		<polygon class="st0" points="210.6,708.1 210.6,687.5 262.8,668.6 262.8,689.2 		"/>
		<polygon class="st0" points="349.3,720.8 349.3,741.3 335.2,706.5 335.2,686 		"/>
		<polygon class="st0" points="448.4,741.3 448.4,720.8 462.2,686 462.2,706.5 		"/>
		<polygon class="st0" points="586.8,708.1 586.8,687.6 534.3,668.6 534.3,689.2 		"/>
		<polygon class="st0" points="653.5,595.3 653.5,574.8 713.6,566.7 713.6,587.2 		"/>
		<polygon class="st0" points="142.6,595.3 142.6,574.8 82.4,566.7 82.4,587.2 		"/>
		<polygon class="st0" points="140.3,646.9 140.3,667.5 210.6,708.1 210.6,687.5 		"/>
		<polygon class="st0" points="656.7,667.5 656.7,646.9 586.8,687.6 586.8,708.1 		"/>
		<g>
			
				<ellipse transform="matrix(2.835242e-03 -1 1 2.835242e-03 -137.8963 932.9445)" class="st2" cx="398.8" cy="535.6" rx="141.7" ry="244.6"/>
		</g>
	</g>
	<g>
		<g class="st3">
			<path class="st4" d="M597.3,474.3l-151.8-87.7c-3-1.7-7.8-1.7-10.8,0l-13.8,8c-3,1.7-2.9,4.5,0,6.2l151.8,87.7
				c3,1.7,7.8,1.7,10.8,0l13.8-8C600.3,478.9,600.3,476.1,597.3,474.3z"/>
		</g>
		<path class="st5" d="M572,118.4L460,53.7c-5.5-3.2-10.4-3.4-13.9-1.2l-5.8,3.4l2.4,0.4c-1.2,2.2-1.9,5-1.9,8.3l-0.9,312.8
			c0,12.2,8.5,27,19.1,33.1L571,475.3c3,1.7,5.9,2.6,8.4,2.6l-0.7,2.1l5.8-3.4c0,0,0,0,0,0l0,0l0,0c3.5-2,5.6-6.3,5.6-12.3
			l0.9-312.8C592,136.2,582.7,124.5,572,118.4z"/>
		<g>
			<path class="st6" d="M565.6,122.1L453.6,57.4c-10.6-6.1-19.2-1.2-19.3,11l-0.9,312.8c0,12.2,8.5,27,19.1,33.1l112.1,64.7
				c10.6,6.1,19.2,1.2,19.3-11l0.9-312.8C585.6,139.9,576.2,128.2,565.6,122.1z"/>
		</g>
		<g>
			<path class="st5" d="M564.9,125.3L454.3,61.5c-9.3-5.4-16.8-1-16.9,9.6l-0.9,311.1c0,10.6,7.5,23.7,16.7,29L563.9,475
				c9.3,5.4,16.8,1,16.9-9.6l0.9-311.1C581.6,141.3,574.2,130.7,564.9,125.3z"/>
		</g>
		<g>
			<path class="st7" d="M564.6,128.8l-14-8.1c-0.9-0.5-1.6-0.1-1.7,0.8c-0.8,5.8-5.4,7.9-11.1,4.7l-56.7-32.7
				c-5.6-3.3-10.3-10.8-11-17.4c-0.1-1-0.8-2.2-1.7-2.7c-2.7-1.5-8.4-4.8-14-8.1c-7.9-4.5-14.2-0.9-14.3,8.1l-0.9,309.7
				c0,9,6.3,20,14.2,24.6l110.1,63.6c7.9,4.5,14.2,0.9,14.3-8.1l0.9-309.7C578.8,144.3,572.5,133.4,564.6,128.8z"/>
		</g>
		<g>
			<g>
				<path class="st8" d="M516.5,288.3l-37.7-21.8c-1.5-0.8-2.7-0.2-2.7,1.5s1.2,3.8,2.7,4.6l37.7,21.7c1.5,0.8,2.7,0.2,2.7-1.5
					S518,289.2,516.5,288.3"/>
				<path class="st8" d="M535.9,299.5l-9.9-5.7c-1.5-0.8-2.7-0.2-2.7,1.5s1.2,3.8,2.7,4.6l9.9,5.7c1.5,0.8,2.7,0.2,2.7-1.5
					S537.4,300.4,535.9,299.5"/>
			</g>
			<g>
				<path class="st8" d="M530.3,312.2l-45.9-26.5c-0.8-0.5-1.5-0.1-1.5,0.9c0,1,0.7,2.1,1.5,2.6l45.9,26.5c0.8,0.5,1.5,0.1,1.5-0.9
					C531.8,313.9,531.1,312.7,530.3,312.2"/>
				<path class="st8" d="M530.2,326.1l-8.5-4.9c-0.8-0.5-1.5-0.1-1.5,0.9c0,1,0.7,2.1,1.5,2.6l8.5,4.9c0.8,0.5,1.5,0.1,1.5-0.9
					C531.7,327.7,531.1,326.5,530.2,326.1"/>
				<path class="st8" d="M515.5,317.5l-31.1-18c-0.8-0.5-1.5-0.1-1.5,0.9c0,1,0.7,2.1,1.5,2.6l31.1,18c0.8,0.5,1.5,0.1,1.5-0.9
					C517,319.2,516.3,318,515.5,317.5"/>
				<path class="st8" d="M533.9,321.3l-33.9-19.6c-0.8-0.5-1.5-0.1-1.5,0.9c0,1,0.7,2.1,1.5,2.6l33.9,19.6c0.8,0.5,1.5,0.1,1.5-0.9
					C535.5,322.9,534.8,321.8,533.9,321.3"/>
				<path class="st8" d="M493.8,298.1l-13.2-7.6c-0.8-0.5-1.5-0.1-1.5,0.9c0,1,0.7,2.1,1.5,2.6l13.2,7.6c0.8,0.5,1.5,0.1,1.5-0.9
					C495.3,299.8,494.6,298.6,493.8,298.1"/>
			</g>
		</g>
		<g>
			<path class="st9" d="M509.3,153.1c-0.4-0.2-0.8-0.4-1.2-0.6c-2.8-1.3-5.7-2.3-8.2-2.2c-2.1,0.1-4,1.1-5,3.2
				c-0.5,1.1-0.7,2.5-0.6,4.1c0,0.2,0,0.4,0.1,0.6c-0.2-0.2-0.4-0.3-0.6-0.4c-0.8-0.5-1.7-0.5-2.3-0.3c-1.6,0.5-2.1,2.6-2.4,4.6
				c-0.3,2.4-0.3,5,0,7.7c0.1,1.4,0.3,2.7,0.6,4.1c0.1,0.6,0.2,1.1,0.3,1.7c-1.7-0.7-3.1,2.1-1.7,5.8c1.3,3.4,2.5,7.1,4,8
				c0.1,0,0.2,0.1,0.2,0.1c0.2,0.1,0.4,0.1,0.6,0.1c1.2,4.3,3.2,8.5,5.6,12.1l0,8.7l-22.4,0c-2.3,0.1-3.8,1.8-4.1,4.5l-1.9,17.8
				c0,0,13.4,14.6,38.5,29.1c22.1,12.7,38.5,15.4,38.5,15.4l-1.8-20c-0.3-3.1-1.8-6.5-4-9.2l-22.1-25.7l0-8.7
				c2.4-0.9,4.4-2.8,5.6-5.7c0.2,0.2,0.4,0.4,0.6,0.6c0.1,0.1,0.2,0.1,0.2,0.2c1.5,0.9,2.7-1.5,4-3.3c1.4-2,0.1-6.3-1.6-7.7
				c0.2-3,0.1-6.2-0.1-9.4c-0.2-3.2-0.4-7.5-2.6-10.9c-0.1-0.2-0.2-0.3-0.4-0.5c0.3-0.3,0.6-0.7,0.7-1.4c0.3-1.9-1-4.3-2.7-5.8
				c-0.7-0.6-1.4-1.1-2.2-1.6c-0.2-0.1-0.3-0.2-0.5-0.3c0.1-0.3,0.1-0.7,0.1-1c0-2.2-1.4-4.8-3.1-6.4c-0.7-0.6-1.4-1.1-2-1.5
				c-0.6-0.4-1.3-0.6-1.9-0.8c0-0.1,0-0.3-0.1-0.4c-0.2-0.8-0.8-1.7-1.4-2.3C511.2,154.4,510.2,153.6,509.3,153.1"/>
		</g>
		<g>
			<g>
				<path class="st10" d="M532.4,351.4c-9.7-5.6-17.5-1.1-17.6,10c0,11.1,7.8,24.7,17.5,30.2c9.7,5.6,17.5,1.1,17.6-10
					C549.9,370.5,542.1,357,532.4,351.4z"/>
			</g>
			<g>
				<path class="st1" d="M532.4,366.3c-5.3-3.1-7.9-2.8-9.4-2.3c-1.5,0.5-2.1,2.5-1.9,3.8c0.2,0.8,0.6,1.8,1,2.6
					c0.2,0.4,0.5,0.7,0.8,0.9c0.1,0.1,0.2,0.1,0.3,0.1l3.6,0.7c0.4,0.1,0.7-0.2,0.7-0.7l0-2.2c0-0.4,0.2-0.7,0.6-0.7
					c1.6,0,4.3,1.6,4.3,1.6s2.7,1.6,4.3,3.4c0.3,0.4,0.6,0.9,0.6,1.4l0,2.2c0,0.5,0.3,1.1,0.7,1.5l3.6,3.4c0.1,0.1,0.2,0.2,0.3,0.3
					c0.3,0.2,0.6,0.2,0.8,0c0.4-0.3,0.8-0.9,1-1.5c0.3-1-0.4-3.8-1.8-6C540.3,372.6,537.7,369.4,532.4,366.3"/>
			</g>
		</g>
		<g>
			<g>
				<path class="st11" d="M483.6,323.2c-9.7-5.6-17.5-1.1-17.6,10c0,11.1,7.8,24.7,17.5,30.2c9.7,5.6,17.5,1.1,17.6-10
					C501.1,342.3,493.3,328.7,483.6,323.2z"/>
			</g>
			<g>
				<path class="st1" d="M478.3,329.8c0,0-0.1,0-0.1-0.1c-0.6-0.3-1.4-0.5-1.9-0.5c-0.9,0.1-1.9,1.7-1.7,4c0.2,2.3,0.9,6,4.7,12.5
					c3.8,6.5,6.6,9,8.5,10.3c0.2,0.1,0.3,0.2,0.5,0.3c1.7,1,3.4,0.9,3.9,0.3c0.3-0.4,0.5-1.3,0.6-1.9c0.1-0.5-0.2-1.1-0.6-1.5
					l-3.4-3.9c-0.1-0.2-0.3-0.3-0.5-0.4c-0.3-0.2-0.5-0.2-0.7-0.1l-1.4,0.8c-0.2,0.1-0.5,0.1-0.7-0.1c-0.1-0.1-0.2-0.1-0.3-0.2
					c-1.6-1.6-3.6-4.9-3.6-4.9s-1.9-3.3-2.5-5.5c-0.1-0.5,0-0.9,0.3-1l1.4-0.8c0.3-0.2,0.4-0.7,0.2-1.2l-1.7-4.8
					C479,330.5,478.7,330,478.3,329.8"/>
			</g>
		</g>
		<g>
			<path class="st6" d="M518.4,105.5l-19.6-11.3c-0.6-0.3-1-0.1-1,0.6c0,0.6,0.4,1.4,1,1.7l19.6,11.3c0.5,0.3,1,0.1,1-0.6
				C519.4,106.6,519,105.8,518.4,105.5"/>
		</g>
		<g>
			<path class="st6" d="M525.5,108.9c-1-0.6-1.8-0.1-1.9,1.1c0,1.2,0.8,2.6,1.8,3.2c1,0.6,1.8,0.1,1.9-1
				C527.3,111,526.5,109.5,525.5,108.9"/>
		</g>
		<g>
			<path class="st5" d="M525.5,109.4c-0.8-0.5-1.4-0.1-1.4,0.8c0,0.9,0.6,2,1.4,2.5c0.8,0.5,1.4,0.1,1.4-0.8
				C526.9,111,526.2,109.9,525.5,109.4"/>
		</g>
		<g>
			<path class="st6" d="M525.5,110.7c-0.2-0.1-0.3,0-0.3,0.2c0,0.2,0.1,0.5,0.3,0.6c0.2,0.1,0.3,0,0.3-0.2
				C525.8,111,525.6,110.8,525.5,110.7"/>
		</g>
		<g class="st12">
			<g>
				<path class="st1" d="M550.7,120.7c-0.9-0.5-1.6-0.1-1.7,0.8c-0.8,5.8-5.4,7.9-11.1,4.7l-56.7-32.7c-5-2.9-9.2-9.1-10.6-15.1
					l-30.4,23.1l-0.3,115.9l120-91.3L550.7,120.7z"/>
			</g>
			<g>
				<polygon class="st1" points="439.7,270.7 439.6,295.8 578.7,189.9 578.8,164.9 				"/>
			</g>
			<g>
				<path class="st1" d="M439.4,383.1c0,9,6.3,20,14.2,24.6l33,19.1l91.7-69.8l0.3-115.9L439.5,346.9L439.4,383.1z"/>
			</g>
			<g>
				<polygon class="st1" points="545,460.5 578,435.4 578.1,410.3 526.3,449.7 				"/>
			</g>
		</g>
		<g>
			<path class="st11" d="M623.4,305l-17.4-10c-0.6-0.3-1.1-0.1-1.1,0.6c0,0.7,0.5,1.5,1.1,1.8l17.4,10c0.6,0.3,1.1,0.1,1.1-0.6
				C624.5,306.2,624,305.3,623.4,305"/>
			<path class="st11" d="M630.7,314.7l-24.7-14.2c-0.6-0.3-1.1-0.1-1.1,0.6c0,0.7,0.5,1.5,1.1,1.8l24.7,14.2
				c0.6,0.3,1.1,0.1,1.1-0.6C631.8,315.8,631.3,315,630.7,314.7"/>
			<path class="st11" d="M646.8,324l-10.6-6.1c-0.6-0.3-1.1-0.1-1.1,0.6c0,0.7,0.5,1.5,1.1,1.8l10.6,6.1c0.6,0.3,1.1,0.1,1.1-0.6
				C647.9,325.2,647.4,324.3,646.8,324"/>
			<path class="st11" d="M614.8,311l-8.8-5.1c-0.6-0.3-1.1-0.1-1.1,0.6s0.5,1.5,1.1,1.8l8.8,5.1c0.6,0.3,1.1,0.1,1.1-0.6
				C615.9,312.2,615.4,311.4,614.8,311"/>
			<path class="st11" d="M637,323.8l-17.6-10.1c-0.6-0.3-1.1-0.1-1.1,0.6c0,0.7,0.5,1.5,1.1,1.8l17.6,10.1c0.6,0.3,1.1,0.1,1.1-0.6
				C638,325,637.6,324.2,637,323.8"/>
			<path class="st11" d="M621,320.1l-15-8.7c-0.6-0.3-1.1-0.1-1.1,0.6c0,0.7,0.5,1.5,1.1,1.8l15,8.7c0.6,0.3,1.1,0.1,1.1-0.6
				C622.1,321.2,621.6,320.4,621,320.1"/>
			<path class="st11" d="M630.7,325.7l-4.9-2.8c-0.6-0.3-1.1-0.1-1.1,0.6c0,0.7,0.5,1.5,1.1,1.8l4.9,2.8c0.6,0.3,1.1,0.1,1.1-0.6
				C631.7,326.8,631.3,326,630.7,325.7"/>
			<path class="st11" d="M641.1,315.2l-13.9-8c-0.6-0.3-1.1-0.1-1.1,0.6c0,0.7,0.5,1.5,1.1,1.8l13.9,8c0.6,0.3,1.1,0.1,1.1-0.6
				C642.1,316.3,641.7,315.5,641.1,315.2"/>
			<path class="st5" d="M631.2,299.6l-24.4-14.1c-1-0.6-1.8-0.1-1.8,1c0,1.1,0.8,2.5,1.8,3l24.4,14.1c1,0.6,1.8,0.1,1.8-1
				C633,301.6,632.2,300.2,631.2,299.6"/>
			<path class="st5" d="M646.5,308.4l-9.1-5.3c-1-0.6-1.8-0.1-1.8,1c0,1.1,0.8,2.5,1.8,3.1l9.1,5.3c1,0.6,1.8,0.1,1.8-1
				C648.2,310.3,647.4,309,646.5,308.4"/>
		</g>
		<g>
			<path class="st11" d="M623,345.3l-17.4-10c-0.6-0.3-1.1-0.1-1.1,0.6c0,0.7,0.5,1.5,1.1,1.8l17.4,10c0.6,0.3,1.1,0.1,1.1-0.6
				C624,346.5,623.6,345.6,623,345.3"/>
			<path class="st11" d="M630.3,355l-24.7-14.2c-0.6-0.3-1.1-0.1-1.1,0.6c0,0.7,0.5,1.5,1.1,1.8l24.7,14.2c0.6,0.3,1.1,0.1,1.1-0.6
				C631.3,356.2,630.8,355.3,630.3,355"/>
			<path class="st11" d="M646.4,364.3l-10.6-6.1c-0.6-0.3-1.1-0.1-1.1,0.6c0,0.7,0.5,1.5,1.1,1.8l10.6,6.1c0.6,0.3,1.1,0.1,1.1-0.6
				C647.4,365.5,647,364.6,646.4,364.3"/>
			<path class="st11" d="M614.4,351.3l-8.8-5.1c-0.6-0.3-1.1-0.1-1.1,0.6c0,0.7,0.5,1.5,1.1,1.8l8.8,5.1c0.6,0.3,1.1,0.1,1.1-0.6
				C615.4,352.5,615,351.7,614.4,351.3"/>
			<path class="st11" d="M636.5,364.1L619,354c-0.6-0.3-1.1-0.1-1.1,0.6c0,0.7,0.5,1.5,1.1,1.8l17.6,10.1c0.6,0.3,1.1,0.1,1.1-0.6
				C637.6,365.3,637.1,364.5,636.5,364.1"/>
			<path class="st11" d="M620.5,360.4l-15-8.7c-0.6-0.3-1.1-0.1-1.1,0.6c0,0.7,0.5,1.5,1.1,1.8l15,8.7c0.6,0.3,1.1,0.1,1.1-0.6
				C621.6,361.6,621.1,360.7,620.5,360.4"/>
			<path class="st11" d="M630.2,366l-4.9-2.8c-0.6-0.3-1.1-0.1-1.1,0.6c0,0.7,0.5,1.5,1.1,1.8l4.9,2.8c0.6,0.3,1.1,0.1,1.1-0.6
				C631.3,367.1,630.8,366.3,630.2,366"/>
			<path class="st11" d="M640.6,355.5l-13.9-8c-0.6-0.3-1.1-0.1-1.1,0.6c0,0.7,0.5,1.5,1.1,1.8l13.9,8c0.6,0.3,1.1,0.1,1.1-0.6
				C641.7,356.6,641.2,355.8,640.6,355.5"/>
			<path class="st5" d="M630.7,339.9l-24.4-14.1c-1-0.6-1.8-0.1-1.8,1c0,1.1,0.8,2.5,1.8,3l24.4,14.1c1,0.6,1.8,0.1,1.8-1
				C632.5,341.9,631.7,340.5,630.7,339.9"/>
			<path class="st5" d="M646,348.7l-9.1-5.3c-1-0.6-1.8-0.1-1.8,1c0,1.1,0.8,2.5,1.8,3.1l9.1,5.3c1,0.6,1.8,0.1,1.8-1
				C647.8,350.7,647,349.3,646,348.7"/>
		</g>
		<g>
			<path class="st1" d="M609.8,261.6c-0.8-0.4-1.4-1.5-1.4-2.4l0.1-25.8c0-0.9,0.6-1.2,1.4-0.8l32.5,18.8c0.8,0.4,1.4,1.5,1.4,2.4
				l-0.1,25.8c0,0.9-0.6,1.2-1.4,0.8L623,269.3c-1-0.6-1.9-0.7-2.6-0.3l-5.6,3.1l0-3.3c0-2.4-1.7-5.2-3.7-6.4L609.8,261.6
				 M642.4,248.8L609.9,230c-2-1.2-3.7-0.2-3.7,2.1l-0.1,25.8c0,2.4,1.7,5.2,3.7,6.4l1.3,0.7c0.8,0.4,1.4,1.5,1.4,2.4l0,3.5
				c0,1,0.5,2.3,1.4,3.2c0.3,0.3,0.6,0.5,0.9,0.7c0.6,0.3,1.1,0.4,1.6,0.2l5.8-3.2c0.3-0.1,0.6-0.1,1,0.1l19.3,11.2
				c2,1.2,3.7,0.2,3.7-2.1l0.1-25.8C646.2,252.8,644.5,250,642.4,248.8"/>
			<path class="st1" d="M616.2,247.6c-1.7-1-3.1-0.2-3.1,1.7c0,1.9,1.4,4.3,3,5.3c1.7,1,3,0.2,3-1.7
				C619.2,250.9,617.9,248.5,616.2,247.6"/>
			<path class="st1" d="M626.1,253.3c-1.7-1-3.1-0.2-3.1,1.7c0,1.9,1.4,4.3,3,5.3c1.7,1,3.1,0.2,3.1-1.7
				C629.2,256.6,627.8,254.3,626.1,253.3"/>
			<path class="st1" d="M636.1,259c-1.7-1-3.1-0.2-3.1,1.7c0,1.9,1.4,4.3,3,5.3c1.7,1,3.1,0.2,3.1-1.7
				C639.1,262.4,637.7,260,636.1,259"/>
		</g>
		<g>
			<path class="st7" d="M384.2,242.7c-0.8-0.4-1.4-1.5-1.4-2.4l0.1-25.8c0-0.9,0.6-1.2,1.4-0.8l32.5,18.8c0.8,0.4,1.4,1.5,1.4,2.4
				l-0.1,25.8c0,0.9-0.6,1.2-1.4,0.8l-19.3-11.2c-1-0.6-1.9-0.7-2.6-0.3l-5.6,3.1l0-3.3c0-2.4-1.7-5.2-3.7-6.4L384.2,242.7
				 M416.9,229.8L384.3,211c-2-1.2-3.7-0.2-3.7,2.1l-0.1,25.8c0,2.4,1.7,5.2,3.7,6.4l1.3,0.7c0.8,0.4,1.4,1.5,1.4,2.4l0,3.5
				c0,1,0.5,2.3,1.4,3.2c0.3,0.3,0.6,0.5,0.9,0.7c0.6,0.3,1.1,0.4,1.6,0.2l5.8-3.2c0.3-0.1,0.6-0.1,1,0.1l19.3,11.2
				c2,1.2,3.7,0.2,3.7-2.1l0.1-25.8C420.6,233.9,418.9,231,416.9,229.8"/>
			<path class="st7" d="M390.6,228.6c-1.7-1-3.1-0.2-3.1,1.7c0,1.9,1.4,4.3,3,5.3c1.7,1,3,0.2,3-1.7
				C393.6,231.9,392.3,229.6,390.6,228.6"/>
			<path class="st7" d="M400.5,234.4c-1.7-1-3.1-0.2-3.1,1.7c0,1.9,1.4,4.3,3,5.3c1.7,1,3.1,0.2,3.1-1.7
				C403.6,237.7,402.2,235.3,400.5,234.4"/>
			<path class="st7" d="M410.5,240.1c-1.7-1-3.1-0.2-3.1,1.7c0,1.9,1.4,4.3,3,5.3c1.7,1,3.1,0.2,3.1-1.7
				C413.5,243.4,412.2,241.1,410.5,240.1"/>
		</g>
		<g>
			<path class="st1" d="M397.4,174.6c-13-7.5-23.5-25.8-23.5-40.7c0-14.9,10.7-21,23.7-13.5c13,7.5,23.5,25.8,23.5,40.7
				C421,176,410.4,182.1,397.4,174.6 M397.5,117c-14.6-8.4-26.5-1.6-26.6,15.1s11.8,37.3,26.4,45.7c14.6,8.4,26.5,1.6,26.6-15.1
				S412.1,125.5,397.5,117"/>
			<path class="st1" d="M397.5,125.4c-0.6-0.4-1.1-0.1-1.2,0.6l-0.6,19.9c-0.1,0.2-0.1,0.4-0.1,0.6c0,0.6,0.2,1.2,0.6,1.8
				c0.3,0.5,0.7,1,1.2,1.2c0,0,0,0,0.1,0c0.1,0.1,0.3,0.1,0.4,0.2l14.2,7.5c0.6,0.3,1.1,0.1,1.1-0.6c0-0.7-0.5-1.6-1.1-2l-13-8.1
				l-0.5-19.1C398.6,126.7,398.2,125.8,397.5,125.4C397.5,125.4,397.5,125.4,397.5,125.4"/>
		</g>
		<g>
			<path class="st1" d="M378.1,176.7c-1.1-0.6-2-0.9-2.8-0.9c-0.8,0-1.5,0.4-1.9,1.1c-0.5,0.7-0.7,1.7-0.7,3.1l3.4,2l0-0.3
				c0-0.6,0.1-1.2,0.4-1.6c0.3-0.4,0.9-0.4,1.7,0.1c0.7,0.4,1.2,0.9,1.5,1.6c0.3,0.7,0.5,1.3,0.5,1.9c0,0.7-0.2,1.2-0.5,1.6
				c-0.4,0.4-0.8,0.8-1.3,1c-0.5,0.2-1.3,0.5-2.3,0.9c-0.2,0.1-0.4,0.1-0.6,0.2c-0.2,0.1-0.4,0.2-0.7,0.3l-2,0.8l0,3.4l10.8,6.2
				l0-3.4l-6.3-3.7l0-0.1l2.1-0.8l0.5-0.2c0.8-0.3,1.4-0.6,1.9-0.9c0.5-0.3,0.9-0.7,1.3-1.3c0.4-0.6,0.5-1.4,0.5-2.4
				c0-1-0.2-2.1-0.6-3.2c-0.4-1.1-1-2.1-1.8-3C380.1,178.2,379.2,177.4,378.1,176.7"/>
			<path class="st1" d="M389,194l3.3-4l0,5.9L389,194 M395.6,187.3l-4.3-2.5l-5.8,7.4l0,2.9l6.7,3.9l0,4.2l3.4,2l0-4.2l1.8,1l0-3
				l-1.8-1L395.6,187.3"/>
			<polyline class="st1" points="409.9,193.4 406.7,191.5 398.9,212.2 402.1,214.1 409.9,193.4 			"/>
			<polyline class="st1" points="422,202.4 411.2,196.2 411.2,199.8 418.7,204.2 418.7,204.3 412.7,214.6 412.7,215 416.4,217.1 
				421.9,206.5 422,202.4 			"/>
		</g>
	</g>
	<g>
		<g>
			<g class="st3">
				<path class="st4" d="M537.2,566.2L325.6,444c-4.2-2.4-10.9-2.4-15,0l-83,48.2c-4.1,2.4-4.1,6.3,0.1,8.7l211.6,122.2
					c4.2,2.4,10.9,2.4,15,0l83-48.2C541.4,572.5,541.4,568.6,537.2,566.2z"/>
			</g>
			<g>
				<g>
					<path class="st6" d="M246.6,498.8l-0.3-121.6l49.8-28.8l32.3,103.2L246.6,498.8 M300.1,339.9l-59.2,34.2l0.4,134l94.5-54.5
						L300.1,339.9z"/>
				</g>
				<polygon class="st5" points="321.2,449.6 328.5,451.6 296.1,348.4 290.5,351.7 				"/>
				<polygon class="st5" points="246.6,492.7 246.6,498.8 328.5,451.6 321.2,449.6 				"/>
				<polygon class="st5" points="233.6,369.9 240.9,374.1 241.2,508.1 234,503.9 				"/>
				<polygon class="st5" points="233.6,369.9 240.9,374.1 300.1,339.9 292.9,335.7 				"/>
			</g>
			<g>
				<g>
					<path class="st6" d="M443.8,612.4l-0.3-121.6l49.8-28.8l32.3,103.2L443.8,612.4 M497.3,453.5L438,487.7l0.4,134l94.5-54.5
						L497.3,453.5z"/>
				</g>
				<polygon class="st5" points="518.4,563.2 525.6,565.1 493.3,462 487.7,465.2 				"/>
				<polygon class="st5" points="443.8,606.2 443.8,612.4 525.6,565.1 518.3,563.2 				"/>
				<polygon class="st5" points="430.8,483.5 438,487.7 438.4,621.7 431.2,617.5 				"/>
				<polygon class="st5" points="430.8,483.5 438,487.7 497.3,453.5 490,449.3 				"/>
			</g>
			<path class="st13" d="M540.3,430.8l-3.9,0.6L325.6,309.7c-4.2-2.4-10.9-2.4-15,0l-82.8,48.1l-3.2-1.2l0,5.6c0,0,0,0,0,0l0,0.1
				l0,0c0,1.5,1.1,3.1,3.1,4.3l211.6,122.2c4.2,2.4,10.9,2.4,15,0l83-48.2c2.2-1.3,3.2-2.9,3.1-4.6l0,0
				C540.3,435.8,540.3,430.8,540.3,430.8z"/>
			<path class="st11" d="M454.3,488.8l83-48.2c2.2-1.3,3.2-2.9,3.1-4.6l0,0c0-0.2,0-5.2,0-5.2l-3.9,0.6l-29.4-17l-60.5,60.5v15.6
				C449.3,490.6,452.1,490,454.3,488.8z"/>
			<g>
				<path class="st14" d="M537.2,426.1L325.6,303.9c-4.2-2.4-10.9-2.4-15,0l-83,48.2c-4.1,2.4-4.1,6.3,0.1,8.7L439.3,483
					c4.2,2.4,10.9,2.4,15,0l83-48.2C541.4,432.4,541.4,428.5,537.2,426.1z"/>
			</g>
			<g>
				<path class="st1" d="M256.1,343.7c-1.1-0.6-2.7-0.6-3.8,0.1l-14,8.2c-1.1,0.6-1.1,1.6,0,2.2l20.7,11.9c1.1,0.6,2.8,0.6,3.9,0
					l14-8.2c1-0.6,1.1-1.6,0.1-2.2c0.4,0.3,0.7,0.6,0.7,1l-17.7-1.2l1.3,11c-0.4,0-0.7,0-1.1,0l-1.3-11.1l-2-0.1l-0.2-1.1l-19.1-0.7
					c-0.1-0.2-0.1-0.4-0.1-0.6l19,0.7l-2.2-10.3C255,343.3,255.6,343.4,256.1,343.7 M276.9,355.7
					C276.9,355.7,276.9,355.7,276.9,355.7C276.9,355.7,276.9,355.7,276.9,355.7 M256.1,343.7C256.1,343.7,256.1,343.7,256.1,343.7
					C256.1,343.7,256.1,343.7,256.1,343.7"/>
				<path class="st15" d="M259.9,355.5l-1.1-0.1l1.3,11.1c0.3,0.1,0.7,0.1,1.1,0L259.9,355.5 M256.5,353.6l-19-0.7
					c0,0.2,0,0.4,0.1,0.6l19.1,0.7L256.5,353.6"/>
				<path class="st15" d="M276.9,355.7l-20.7-11.9c0,0,0,0,0,0c0,0,0,0,0,0c0,0,0,0,0,0c-0.5-0.3-1.1-0.4-1.7-0.4l2.2,10.3l0.1,0.6
					l0.2,1.1l2,0.1l1.1,0.1l17.7,1.2C277.6,356.4,277.4,356,276.9,355.7C276.9,355.8,276.9,355.8,276.9,355.7
					C276.9,355.7,276.9,355.7,276.9,355.7C276.9,355.7,276.9,355.7,276.9,355.7"/>
			</g>
			<g>
				<path class="st1" d="M285.5,328c-1.1-0.6-2.7-0.6-3.8,0.1l-14,8.2c-1.1,0.6-1.1,1.6,0,2.2l20.7,11.9c1.1,0.6,2.8,0.6,3.9,0
					l14-8.2c1-0.6,1.1-1.6,0.1-2.2c0.4,0.3,0.7,0.6,0.7,1l-17.7-1.2l1.3,11c-0.4,0-0.7,0-1.1,0l-1.3-11.1l-2-0.1l-0.2-1.1l-19.1-0.7
					c-0.1-0.2-0.1-0.4-0.1-0.6l19,0.7l-2.2-10.3C284.4,327.6,285,327.7,285.5,328 M306.3,340C306.3,340,306.3,340,306.3,340
					C306.3,340,306.3,340,306.3,340 M285.5,328C285.5,328,285.5,328,285.5,328C285.5,328,285.5,328,285.5,328"/>
				<path class="st15" d="M289.3,339.8l-1.1-0.1l1.3,11.1c0.3,0.1,0.7,0.1,1.1,0L289.3,339.8 M285.9,337.8l-19-0.7
					c0,0.2,0,0.4,0.1,0.6l19.1,0.7L285.9,337.8"/>
				<path class="st15" d="M306.3,340L285.6,328c0,0,0,0,0,0c0,0,0,0,0,0c0,0,0,0,0,0c-0.5-0.3-1.1-0.4-1.7-0.4l2.2,10.3l0.1,0.6
					l0.2,1.1l2,0.1l1.1,0.1l17.7,1.2C307,340.7,306.8,340.3,306.3,340C306.4,340,306.4,340,306.3,340C306.3,340,306.3,340,306.3,340
					C306.3,340,306.3,340,306.3,340"/>
			</g>
			<g>
				<path class="st1" d="M314.9,312.3c-1.1-0.6-2.7-0.6-3.8,0.1l-14,8.2c-1.1,0.6-1.1,1.6,0,2.2l20.7,11.9c1.1,0.6,2.8,0.6,3.9,0
					l14-8.2c1-0.6,1.1-1.6,0.1-2.2c0.4,0.3,0.7,0.6,0.7,1l-17.7-1.2l1.3,11c-0.4,0-0.7,0-1.1,0l-1.3-11.1l-2-0.1l-0.2-1.1l-19.1-0.7
					c-0.1-0.2-0.1-0.4-0.1-0.6l19,0.7l-2.2-10.3C313.8,311.9,314.4,312,314.9,312.3 M335.8,324.3
					C335.8,324.3,335.8,324.3,335.8,324.3C335.8,324.3,335.8,324.3,335.8,324.3 M315,312.3C314.9,312.3,314.9,312.3,315,312.3
					C314.9,312.3,314.9,312.3,315,312.3"/>
				<path class="st15" d="M318.8,324.1l-1.1-0.1l1.3,11.1c0.3,0.1,0.7,0.1,1.1,0L318.8,324.1 M315.4,322.1l-19-0.7
					c0,0.2,0,0.4,0.1,0.6l19.1,0.7L315.4,322.1"/>
				<path class="st15" d="M335.7,324.3L315,312.3c0,0,0,0,0,0c0,0,0,0,0,0c0,0,0,0,0,0c-0.5-0.3-1.1-0.4-1.7-0.4l2.2,10.3l0.1,0.6
					l0.2,1.1l2,0.1l1.1,0.1l17.7,1.2C336.5,324.9,336.2,324.6,335.7,324.3C335.8,324.3,335.8,324.3,335.7,324.3
					C335.8,324.3,335.8,324.3,335.7,324.3C335.7,324.3,335.7,324.3,335.7,324.3"/>
			</g>
			<g>
				<g>
					<polygon class="st1" points="497.3,435.6 469,419.3 433.8,439.7 462,456 					"/>
				</g>
				<g>
					<polyline class="st13" points="480.7,441.1 458.9,428.5 458.5,428.8 480.3,441.3 480.7,441.1 					"/>
					<polyline class="st13" points="478.9,442.2 457.1,429.6 456.7,429.8 478.5,442.4 478.9,442.2 					"/>
					<polyline class="st13" points="477.1,443.2 455.3,430.6 454.9,430.9 476.7,443.5 477.1,443.2 					"/>
					<polyline class="st13" points="475.3,444.3 453.5,431.7 453.1,431.9 474.8,444.5 475.3,444.3 					"/>
					<polyline class="st13" points="473.4,445.3 451.7,432.8 451.2,433 473,445.6 473.4,445.3 					"/>
					<polyline class="st13" points="471.6,446.4 449.8,433.8 449.4,434.1 471.2,446.6 471.6,446.4 					"/>
					<polyline class="st13" points="469.8,447.4 448,434.9 447.6,435.1 469.4,447.7 469.8,447.4 					"/>
					<polyline class="st13" points="468,448.5 446.2,435.9 445.8,436.2 467.6,448.7 468,448.5 					"/>
					<polyline class="st13" points="466.1,449.6 444.4,437 444,437.2 465.7,449.8 466.1,449.6 					"/>
					<polyline class="st13" points="453,444.2 442.6,438.2 442.2,438.5 452.6,444.5 453,444.2 					"/>
					<polyline class="st10" points="477.5,431.6 465.5,424.7 464.3,425.3 476.3,432.3 477.5,431.6 					"/>
					<polyline class="st7" points="470.4,429.9 463.5,425.9 462.7,426.3 469.6,430.3 470.4,429.9 					"/>
				</g>
			</g>
			<g>
				<g>
					<polygon class="st1" points="497.8,434.7 469.6,418.4 434.4,438.9 462.6,455.2 					"/>
				</g>
				<g>
					<polyline class="st13" points="481.3,440.3 459.5,427.7 459.1,428 480.9,440.5 481.3,440.3 					"/>
					<polyline class="st13" points="479.5,441.3 457.7,428.8 457.3,429 479.1,441.6 479.5,441.3 					"/>
					<polyline class="st13" points="477.7,442.4 455.9,429.8 455.5,430.1 477.2,442.6 477.7,442.4 					"/>
					<polyline class="st13" points="475.8,443.5 454.1,430.9 453.6,431.1 475.4,443.7 475.8,443.5 					"/>
					<polyline class="st13" points="474,444.5 452.2,431.9 451.8,432.2 473.6,444.8 474,444.5 					"/>
					<polyline class="st13" points="472.2,445.6 450.4,433 450,433.2 471.8,445.8 472.2,445.6 					"/>
					<polyline class="st13" points="470.4,446.6 448.6,434.1 448.2,434.3 469.9,446.9 470.4,446.6 					"/>
					<polyline class="st13" points="468.5,447.7 446.8,435.1 446.4,435.4 468.1,447.9 468.5,447.7 					"/>
					<polyline class="st13" points="466.7,448.7 445,436.2 444.5,436.4 466.3,449 466.7,448.7 					"/>
					<polyline class="st13" points="453.6,443.4 443.2,437.4 442.8,437.6 453.2,443.6 453.6,443.4 					"/>
					<polyline class="st10" points="478,430.8 466.1,423.8 464.9,424.5 476.9,431.4 478,430.8 					"/>
					<polyline class="st7" points="471,429 464.1,425 463.3,425.5 470.2,429.5 471,429 					"/>
				</g>
			</g>
			<g>
				<g>
					<polygon class="st1" points="490.1,434.1 461.8,417.7 426.6,438.2 454.8,454.5 					"/>
				</g>
				<g>
					<polyline class="st13" points="473.5,439.6 451.7,427 451.3,427.3 473.1,439.8 473.5,439.6 					"/>
					<polyline class="st13" points="471.7,440.6 449.9,428.1 449.5,428.3 471.3,440.9 471.7,440.6 					"/>
					<polyline class="st13" points="469.9,441.7 448.1,429.1 447.7,429.4 469.4,441.9 469.9,441.7 					"/>
					<polyline class="st13" points="468,442.8 446.3,430.2 445.9,430.4 467.6,443 468,442.8 					"/>
					<polyline class="st13" points="466.2,443.8 444.5,431.2 444,431.5 465.8,444.1 466.2,443.8 					"/>
					<polyline class="st13" points="464.4,444.9 442.6,432.3 442.2,432.6 464,445.1 464.4,444.9 					"/>
					<polyline class="st13" points="462.6,445.9 440.8,433.4 440.4,433.6 462.2,446.2 462.6,445.9 					"/>
					<polyline class="st13" points="460.8,447 439,434.4 438.6,434.7 460.3,447.2 460.8,447 					"/>
					<polyline class="st13" points="458.9,448.1 437.2,435.5 436.8,435.7 458.5,448.3 458.9,448.1 					"/>
					<polyline class="st13" points="445.8,442.7 435.4,436.7 435,437 445.4,443 445.8,442.7 					"/>
					<polyline class="st10" points="470.3,430.1 458.3,423.2 457.1,423.8 469.1,430.7 470.3,430.1 					"/>
					<polyline class="st7" points="463.2,428.3 456.3,424.4 455.5,424.8 462.4,428.8 463.2,428.3 					"/>
				</g>
			</g>
			<g>
				<g class="st16">
					<path class="st17" d="M419,404.2l-32.9,19.1c-0.8,0.5-1.8,0.5-2.6,0l-54.3-31.6c-1.7-1-1.7-3.5,0-4.5l33.3-19.3
						c0.8-0.5,1.8-0.5,2.6,0l53.8,34C420.2,402.6,420.2,403.5,419,404.2z"/>
				</g>
				<g>
					<path class="st5" d="M419.6,401.3c0,0-1.6,0.2-2.1-0.1l-55.2-32.1c-0.8-0.4-1.7-0.4-2.5,0l-30.4,16.4c-2.1,1.5-1.7,4.6,0,5.5
						l54.3,31.3c0.8,0.4,1.7,0.4,2.5,0l33.1-19.2C420,402.7,419.8,401.8,419.6,401.3L419.6,401.3z"/>
				</g>
				<g>
					<path class="st6" d="M361.2,328.7l0.8,37.5c0,1,0.5,1.9,1.4,2.4l54.2,32c1.8,1.1,4-0.6,4-2.7l0.1-36.5c0-1-0.5-1.9-1.4-2.4
						l-55.1-32.6C363.5,325.4,361.1,326.5,361.2,328.7z"/>
				</g>
				<g>
					<path class="st5" d="M361.2,328.5l-0.1,38.2c0,1,0.5,1.9,1.4,2.4l54.2,31.6c1.8,1.1,4.1-0.3,4.1-2.4l0.1-36.5
						c0-1-0.5-1.9-1.4-2.4l-55.3-32.7C362.9,326,361.2,327,361.2,328.5z"/>
				</g>
				<g>
					<polygon class="st7" points="363.3,328.8 363.1,366.3 418.5,398.3 418.6,361.2 					"/>
				</g>
				<g class="st18">
					<g>
						<polygon class="st1" points="370.3,332.9 363.2,336.2 363.2,363 395.9,347.9 						"/>
					</g>
					<g>
						<polygon class="st1" points="400.2,350.4 364.4,367 371,370.8 406.8,354.2 						"/>
					</g>
					<g>
						<polygon class="st1" points="411,356.7 375.3,373.3 401.1,388.2 418.6,380.1 418.6,361.2 						"/>
					</g>
					<g>
						<polygon class="st1" points="412,394.5 418.5,391.5 418.5,384.6 405.4,390.7 						"/>
					</g>
				</g>
				<g>
					<path class="st6" d="M419.4,402.1l-33.3,19.2c-0.8,0.4-1.7,0.4-2.5,0l-54.2-31.5c-1.7-1-1.6-3.4,0-4.3l30.5-17.6
						c0.8-0.4,1.7-0.4,2.5,0l57,33.1C419.8,401.3,419.8,401.9,419.4,402.1z"/>
				</g>
				<g>
					<path class="st14" d="M373.8,403.4l-8.3,4.9c-0.2,0.1-0.5,0.1-0.7,0l-14.6-8.4c-0.4-0.3-0.4-0.9,0-1.2l8-4.5
						c0.2-0.1,0.5-0.1,0.7,0l14.9,8.9C373.9,403.2,373.9,403.3,373.8,403.4z"/>
				</g>
				<g>
					<path class="st14" d="M360.8,372.5l1.9,1.1c0.2,0.1,0.6,0.1,0.8,0l0.9-0.6c0.2-0.1,0.2-0.4,0-0.5l-1.9-1.1
						c-0.2-0.1-0.6-0.1-0.8,0l-0.9,0.5C360.5,372.1,360.5,372.3,360.8,372.5z"/>
					<path class="st14" d="M364,374.4l1.9,1.1c0.2,0.1,0.6,0.1,0.8,0l0.9-0.6c0.2-0.1,0.2-0.4,0-0.5l-1.9-1.1
						c-0.2-0.1-0.6-0.1-0.8,0l-0.9,0.6C363.8,374,363.8,374.3,364,374.4z"/>
					<path class="st14" d="M367.4,376.3l1.9,1.1c0.2,0.1,0.6,0.1,0.8,0l0.9-0.6c0.2-0.1,0.2-0.4,0-0.5l-1.9-1.1
						c-0.2-0.1-0.6-0.1-0.8,0l-0.9,0.6C367.2,376,367.2,376.2,367.4,376.3z"/>
					<path class="st14" d="M370.7,378.3l1.9,1.1c0.2,0.1,0.6,0.1,0.8,0l0.9-0.6c0.2-0.1,0.2-0.4,0-0.5l-1.9-1.1
						c-0.2-0.1-0.6-0.1-0.8,0l-0.9,0.6C370.5,377.9,370.5,378.2,370.7,378.3z"/>
					<path class="st14" d="M374.2,380.3l2,1.1c0.2,0.1,0.6,0.1,0.8,0l0.9-0.6c0.2-0.1,0.2-0.4,0-0.5l-2-1.1c-0.2-0.1-0.6-0.1-0.8,0
						l-0.9,0.6C373.9,379.9,373.9,380.2,374.2,380.3z"/>
					<path class="st14" d="M377.6,382.3l2,1.2c0.2,0.1,0.6,0.1,0.8,0l0.9-0.6c0.2-0.1,0.2-0.4,0-0.5l-2-1.2c-0.2-0.1-0.6-0.1-0.8,0
						l-0.9,0.6C377.4,381.9,377.4,382.2,377.6,382.3z"/>
					<path class="st14" d="M381.1,384.4l2,1.2c0.2,0.1,0.6,0.1,0.9,0l0.9-0.6c0.2-0.1,0.2-0.4,0-0.5l-2-1.2c-0.2-0.1-0.6-0.1-0.9,0
						l-0.9,0.6C380.9,384,380.9,384.2,381.1,384.4z"/>
					<path class="st14" d="M384.6,386.4l2,1.2c0.2,0.1,0.6,0.1,0.9,0l0.9-0.6c0.2-0.1,0.2-0.4,0-0.5l-2-1.2c-0.2-0.1-0.6-0.1-0.9,0
						l-0.9,0.6C384.4,386.1,384.4,386.3,384.6,386.4z"/>
					<path class="st14" d="M388.2,388.5l2.1,1.2c0.2,0.1,0.6,0.1,0.9,0l1-0.6c0.2-0.1,0.2-0.4,0-0.5l-2.1-1.2
						c-0.2-0.1-0.6-0.1-0.9,0l-1,0.6C388,388.1,388,388.4,388.2,388.5z"/>
					<path class="st14" d="M391.9,390.6l2.1,1.2c0.2,0.1,0.6,0.1,0.9,0l1-0.6c0.2-0.1,0.2-0.4,0-0.5l-2.1-1.2
						c-0.2-0.1-0.6-0.1-0.9,0l-1,0.6C391.6,390.3,391.6,390.5,391.9,390.6z"/>
					<path class="st14" d="M395.5,392.8l2.1,1.2c0.3,0.1,0.6,0.1,0.9,0l1-0.6c0.2-0.1,0.2-0.4,0-0.5l-2.1-1.2
						c-0.3-0.1-0.6-0.1-0.9,0l-1,0.6C395.3,392.4,395.3,392.6,395.5,392.8z"/>
					<path class="st14" d="M399.3,395l2.1,1.2c0.3,0.1,0.7,0.2,0.9,0l1-0.6c0.2-0.1,0.2-0.4,0-0.5l-2.1-1.2c-0.3-0.1-0.7-0.1-0.9,0
						l-1,0.6C399,394.6,399,394.8,399.3,395z"/>
					<path class="st14" d="M403,397.2l2.2,1.3c0.3,0.2,0.7,0.2,0.9,0l1-0.6c0.2-0.2,0.2-0.4,0-0.5l-2.2-1.3c-0.3-0.1-0.7-0.1-0.9,0
						l-1,0.6C402.7,396.8,402.8,397,403,397.2z"/>
					<path class="st14" d="M410.9,399.5l-2.2-1.3c-0.3-0.2-0.7-0.2-0.9,0l-1,0.6c-0.2,0.2-0.2,0.4,0,0.6l2.2,1.3
						c0.3,0.2,0.7,0.2,0.9,0l1-0.6C411.1,399.9,411.1,399.7,410.9,399.5z"/>
					<path class="st14" d="M357.7,374.4l1.7,1c0.3,0.2,0.7,0.2,1,0l1.7-1c0.3-0.2,0.3-0.4,0-0.6l-1.7-1c-0.3-0.2-0.7-0.2-1,0l-1.7,1
						C357.5,373.9,357.4,374.2,357.7,374.4z"/>
					<path class="st14" d="M365.3,375.6l-1.7-1c-0.3-0.2-0.7-0.2-1,0l-1.7,1c-0.3,0.2-0.3,0.4,0,0.6l1.7,1c0.3,0.2,0.7,0.2,1,0
						l1.7-1C365.6,376.1,365.6,375.8,365.3,375.6z"/>
					<path class="st14" d="M368.6,377.5l-1.8-1c-0.3-0.2-0.7-0.2-1,0l-1.7,1c-0.3,0.2-0.3,0.4,0,0.6l1.7,1c0.3,0.2,0.7,0.2,1,0
						l1.7-1C368.8,378,368.8,377.7,368.6,377.5z"/>
					<path class="st14" d="M359.3,379.1l1.7,1c0.3,0.2,0.7,0.2,1,0l1.7-1c0.3-0.2,0.3-0.4,0-0.6l-1.7-1c-0.3-0.2-0.7-0.2-1,0l-1.7,1
						C359,378.6,359,378.9,359.3,379.1z"/>
					<path class="st14" d="M354.6,376.2l3.2,1.9c0.3,0.2,0.7,0.2,1,0l1.7-1c0.3-0.2,0.3-0.4,0-0.6l-3.2-1.9c-0.3-0.2-0.7-0.2-1,0
						l-1.7,1C354.3,375.8,354.3,376.1,354.6,376.2z"/>
					<path class="st14" d="M367,380.4l-1.8-1c-0.3-0.2-0.7-0.2-1,0l-1.7,1c-0.3,0.2-0.3,0.5,0,0.6l1.8,1.1c0.3,0.2,0.8,0.2,1,0
						l1.7-1C367.3,380.8,367.3,380.6,367,380.4z"/>
					<path class="st14" d="M370.3,382.3l-1.8-1.1c-0.3-0.2-0.8-0.2-1,0l-1.7,1c-0.3,0.2-0.3,0.5,0,0.6l1.8,1.1
						c0.3,0.2,0.8,0.2,1.1,0l1.7-1C370.6,382.8,370.6,382.5,370.3,382.3z"/>
					<path class="st14" d="M373.6,384.3l-1.8-1.1c-0.3-0.2-0.8-0.2-1.1,0l-1.7,1c-0.3,0.2-0.3,0.5,0,0.6l1.8,1.1
						c0.3,0.2,0.8,0.2,1.1,0l1.7-1C373.9,384.7,373.9,384.4,373.6,384.3z"/>
					<path class="st14" d="M376.9,386.2l-1.8-1.1c-0.3-0.2-0.8-0.2-1.1,0l-1.7,1c-0.3,0.2-0.3,0.5,0,0.6l1.8,1.1
						c0.3,0.2,0.8,0.2,1.1,0l1.7-1.1C377.2,386.7,377.2,386.4,376.9,386.2z"/>
					<path class="st14" d="M380.3,388.2l-1.8-1.1c-0.3-0.2-0.8-0.2-1.1,0l-1.7,1.1c-0.3,0.2-0.3,0.5,0,0.6l1.8,1.1
						c0.3,0.2,0.8,0.2,1.1,0l1.7-1.1C380.6,388.7,380.6,388.4,380.3,388.2z"/>
					<path class="st14" d="M383.7,390.3l-1.9-1.1c-0.3-0.2-0.8-0.2-1.1,0l-1.7,1.1c-0.3,0.2-0.3,0.5,0,0.7l1.9,1.1
						c0.3,0.2,0.8,0.2,1.1,0l1.7-1.1C384,390.7,384,390.5,383.7,390.3z"/>
					<path class="st14" d="M387.2,392.3l-1.9-1.1c-0.3-0.2-0.8-0.2-1.1,0l-1.7,1.1c-0.3,0.2-0.3,0.5,0,0.7l1.9,1.1
						c0.3,0.2,0.8,0.2,1.1,0l1.7-1.1C387.5,392.8,387.5,392.5,387.2,392.3z"/>
					<path class="st14" d="M385.9,395l1.9,1.1c0.3,0.2,0.8,0.2,1.1,0l1.7-1.1c0.3-0.2,0.3-0.5,0-0.7l-1.9-1.1
						c-0.3-0.2-0.8-0.2-1.1,0l-1.7,1.1C385.6,394.5,385.6,394.8,385.9,395z"/>
					<path class="st14" d="M394.2,397.2c0.3-0.2,0.3-0.5,0-0.7l-1.9-1.1c-0.3-0.2-0.8-0.2-1.1,0l-1.7,1.1c-0.3,0.2-0.3,0.5,0,0.7
						l1.9,1.2c0.3,0.2,0.8,0.2,1.1,0L394.2,397.2z"/>
					<path class="st14" d="M397.8,399.3c0.3-0.2,0.3-0.5,0-0.7l-2-1.2c-0.3-0.2-0.8-0.2-1.1,0l-1.8,1.1c-0.3,0.2-0.3,0.5,0,0.7
						l2,1.2c0.3,0.2,0.8,0.2,1.1,0L397.8,399.3z"/>
					<path class="st14" d="M396.6,401.4l2,1.2c0.3,0.2,0.8,0.2,1.1,0l1.8-1.1c0.3-0.2,0.3-0.5,0-0.7l-2-1.2c-0.3-0.2-0.8-0.2-1.1,0
						l-1.8,1.1C396.3,400.9,396.3,401.2,396.6,401.4z"/>
					<path class="st14" d="M357,380.9c-0.3,0.2-0.3,0.5,0,0.6l1.7,1.1c0.3,0.2,0.7,0.2,1,0l1.7-1c0.3-0.2,0.3-0.5,0-0.6l-1.7-1
						c-0.3-0.2-0.7-0.2-1,0L357,380.9z"/>
					<path class="st14" d="M351.4,378.1l4,2.4c0.3,0.2,0.7,0.2,1,0l1.7-1c0.3-0.2,0.3-0.4,0-0.6l-4-2.4c-0.3-0.2-0.7-0.2-1,0l-1.7,1
						C351.1,377.7,351.1,378,351.4,378.1z"/>
					<path class="st14" d="M360.1,382.8c-0.3,0.2-0.3,0.5,0,0.6l1.8,1.1c0.3,0.2,0.8,0.2,1,0l1.7-1c0.3-0.2,0.3-0.5,0-0.6l-1.8-1.1
						c-0.3-0.2-0.7-0.2-1,0L360.1,382.8z"/>
					<path class="st14" d="M363.4,385.4l1.8,1.1c0.3,0.2,0.8,0.2,1.1,0l1.7-1c0.3-0.2,0.3-0.5,0-0.6l-1.8-1.1c-0.3-0.2-0.8-0.2-1,0
						l-1.7,1C363.1,384.9,363.1,385.2,363.4,385.4z"/>
					<path class="st14" d="M366.6,387.3l1.8,1.1c0.3,0.2,0.8,0.2,1.1,0l1.7-1.1c0.3-0.2,0.3-0.5,0-0.6l-1.8-1.1
						c-0.3-0.2-0.8-0.2-1.1,0l-1.7,1C366.3,386.9,366.3,387.2,366.6,387.3z"/>
					<path class="st14" d="M369.9,389.3l1.8,1.1c0.3,0.2,0.8,0.2,1.1,0l1.7-1.1c0.3-0.2,0.3-0.5,0-0.6l-1.8-1.1
						c-0.3-0.2-0.8-0.2-1.1,0l-1.7,1.1C369.6,388.9,369.6,389.2,369.9,389.3z"/>
					<path class="st14" d="M373.3,391.4l1.8,1.1c0.3,0.2,0.8,0.2,1.1,0l1.7-1.1c0.3-0.2,0.3-0.5,0-0.7l-1.8-1.1
						c-0.3-0.2-0.8-0.2-1.1,0l-1.7,1.1C373,390.9,373,391.2,373.3,391.4z"/>
					<path class="st14" d="M376.7,393.4l1.9,1.1c0.3,0.2,0.8,0.2,1.1,0l1.7-1.1c0.3-0.2,0.3-0.5,0-0.7l-1.9-1.1
						c-0.3-0.2-0.8-0.2-1.1,0l-1.7,1.1C376.4,392.9,376.4,393.2,376.7,393.4z"/>
					<path class="st14" d="M380.1,395.5l1.9,1.1c0.3,0.2,0.8,0.2,1.1,0l1.8-1.1c0.3-0.2,0.3-0.5,0-0.7l-1.9-1.1
						c-0.3-0.2-0.8-0.2-1.1,0l-1.7,1.1C379.8,395,379.8,395.3,380.1,395.5z"/>
					<path class="st14" d="M383.6,397.6l1.9,1.2c0.3,0.2,0.8,0.2,1.1,0l1.8-1.1c0.3-0.2,0.3-0.5,0-0.7l-1.9-1.1
						c-0.3-0.2-0.8-0.2-1.1,0l-1.8,1.1C383.3,397.1,383.3,397.4,383.6,397.6z"/>
					<path class="st14" d="M387.1,399.7l1.9,1.2c0.3,0.2,0.8,0.2,1.1,0l1.8-1.1c0.3-0.2,0.3-0.5,0-0.7l-1.9-1.2
						c-0.3-0.2-0.8-0.2-1.1,0l-1.8,1.1C386.8,399.2,386.8,399.5,387.1,399.7z"/>
					<path class="st14" d="M393.7,403.1l1.8-1.1c0.3-0.2,0.3-0.5,0-0.7l-2-1.2c-0.3-0.2-0.8-0.2-1.1,0l-1.8,1.1
						c-0.3,0.2-0.3,0.5,0,0.7l2,1.2C392.9,403.3,393.4,403.3,393.7,403.1z"/>
					<path class="st14" d="M401.8,405.1l-4.7-2.8c-0.3-0.2-0.8-0.2-1.1,0l-1.8,1.1c-0.3,0.2-0.3,0.5,0,0.7l4.7,2.8
						c0.3,0.2,0.8,0.2,1.1,0l1.8-1.1C402.2,405.6,402.1,405.3,401.8,405.1z"/>
					<path class="st14" d="M355.4,384.4l1.7,1.1c0.3,0.2,0.8,0.2,1,0l1.7-1c0.3-0.2,0.3-0.5,0-0.6l-1.7-1.1c-0.3-0.2-0.7-0.2-1,0
						l-1.7,1C355.1,384,355.1,384.2,355.4,384.4z"/>
					<path class="st14" d="M349.5,381.5l-2-1.2c-0.2-0.1-0.5-0.1-0.7,0l-2.5,1.5c-0.2,0.1-0.2,0.3,0,0.4l2,1.3
						c0.2,0.1,0.5,0.1,0.7,0l2.5-1.5C349.7,381.8,349.7,381.6,349.5,381.5z"/>
					<path class="st14" d="M352.7,383.4l-2.1-1.3c-0.2-0.1-0.5-0.1-0.7,0l-2.5,1.5c-0.2,0.1-0.2,0.3,0,0.4l2.1,1.3
						c0.2,0.1,0.5,0.1,0.7,0l2.5-1.5C352.9,383.7,352.9,383.5,352.7,383.4z"/>
					<path class="st14" d="M355.9,385.4l-2.1-1.3c-0.2-0.1-0.5-0.1-0.7,0l-2.5,1.5c-0.2,0.1-0.2,0.3,0,0.4l2.1,1.3
						c0.2,0.1,0.5,0.1,0.7,0l2.6-1.5C356,385.7,356.1,385.5,355.9,385.4z"/>
					<path class="st14" d="M359.8,387.8l-2.8-1.7c-0.2-0.1-0.5-0.1-0.7,0l-2.6,1.5c-0.2,0.1-0.2,0.3,0,0.4l2.8,1.8
						c0.2,0.1,0.5,0.1,0.7,0l2.6-1.6C360,388.1,360,387.9,359.8,387.8z"/>
					<path class="st14" d="M380.9,400.8l-3.1-1.9c-0.2-0.1-0.5-0.1-0.7,0l-2.6,1.6c-0.2,0.1-0.2,0.3,0,0.4l3.1,1.9
						c0.2,0.1,0.5,0.1,0.7,0l2.6-1.6C381.2,401.1,381.1,400.9,380.9,400.8z"/>
					<path class="st14" d="M384.5,402.9l-2.3-1.4c-0.2-0.1-0.5-0.1-0.7,0l-2.6,1.6c-0.2,0.1-0.2,0.3,0,0.5l2.3,1.4
						c0.2,0.1,0.5,0.1,0.7,0l2.6-1.7C384.7,403.3,384.7,403.1,384.5,402.9z"/>
					<path class="st14" d="M386.4,406.2l-2.3-1.4c-0.2-0.1-0.5-0.1-0.7,0l-1,0.6c-0.2,0.1-0.2,0.3,0,0.5l2.3,1.4
						c0.2,0.1,0.5,0.1,0.7,0l1-0.6C386.6,406.6,386.6,406.4,386.4,406.2z"/>
					<path class="st14" d="M393.7,410.7l-2.4-1.5c-0.2-0.1-0.5-0.1-0.7,0l-1,0.6c-0.2,0.1-0.2,0.3,0,0.5l2.4,1.5
						c0.2,0.1,0.5,0.1,0.8,0l1-0.6C393.9,411.1,393.9,410.9,393.7,410.7z"/>
					<path class="st14" d="M390,408.5l-2.3-1.4c-0.2-0.1-0.5-0.1-0.7,0l-1,0.6c-0.2,0.1-0.2,0.3,0,0.5l2.3,1.4
						c0.2,0.1,0.5,0.1,0.7,0l1-0.6C390.3,408.8,390.3,408.6,390,408.5z"/>
					<path class="st14" d="M387.9,406.9l2.3,1.4c0.2,0.1,0.5,0.1,0.7,0l1-0.6c0.2-0.1,0.2-0.3,0-0.5l-2.3-1.4
						c-0.2-0.1-0.5-0.1-0.7,0l-1,0.6C387.7,406.6,387.7,406.8,387.9,406.9z"/>
					<path class="st14" d="M376.5,398l-15.5-9.5c-0.2-0.1-0.5-0.1-0.7,0l-2.6,1.6c-0.2,0.1-0.2,0.3,0,0.4l15.5,9.6
						c0.2,0.1,0.5,0.1,0.7,0l2.6-1.6C376.7,398.4,376.7,398.2,376.5,398z"/>
					<path class="st14" d="M348.2,380l5.5,3.4c0.3,0.2,0.7,0.2,1,0l1.7-1c0.3-0.2,0.3-0.5,0-0.6l-5.5-3.4c-0.3-0.2-0.7-0.2-1,0
						l-1.7,1C347.9,379.6,347.9,379.8,348.2,380z"/>
					<path class="st14" d="M358.6,386.4l1.8,1.1c0.3,0.2,0.8,0.2,1.1,0l1.7-1c0.3-0.2,0.3-0.5,0-0.6l-1.8-1.1c-0.3-0.2-0.8-0.2-1,0
						l-1.7,1C358.3,385.9,358.3,386.2,358.6,386.4z"/>
					<path class="st14" d="M361.8,388.4l1.8,1.1c0.3,0.2,0.8,0.2,1.1,0l1.7-1.1c0.3-0.2,0.3-0.5,0-0.6l-1.8-1.1
						c-0.3-0.2-0.8-0.2-1.1,0l-1.7,1.1C361.5,387.9,361.5,388.2,361.8,388.4z"/>
					<path class="st14" d="M365.1,390.4l1.8,1.1c0.3,0.2,0.8,0.2,1.1,0l1.7-1.1c0.3-0.2,0.3-0.5,0-0.6l-1.8-1.1
						c-0.3-0.2-0.8-0.2-1.1,0l-1.7,1.1C364.8,389.9,364.8,390.2,365.1,390.4z"/>
					<path class="st14" d="M368.4,392.4l1.8,1.1c0.3,0.2,0.8,0.2,1.1,0l1.8-1.1c0.3-0.2,0.3-0.5,0-0.7l-1.8-1.1
						c-0.3-0.2-0.8-0.2-1.1,0l-1.7,1.1C368.1,391.9,368.1,392.2,368.4,392.4z"/>
					<path class="st14" d="M371.8,394.5l1.8,1.1c0.3,0.2,0.8,0.2,1.1,0l1.8-1.1c0.3-0.2,0.3-0.5,0-0.7l-1.9-1.1
						c-0.3-0.2-0.8-0.2-1.1,0l-1.8,1.1C371.5,394,371.5,394.3,371.8,394.5z"/>
					<path class="st14" d="M375.2,396.5l1.9,1.1c0.3,0.2,0.8,0.2,1.1,0l1.8-1.1c0.3-0.2,0.3-0.5,0-0.7l-1.9-1.1
						c-0.3-0.2-0.8-0.2-1.1,0l-1.8,1.1C374.9,396.1,374.9,396.4,375.2,396.5z"/>
					<path class="st14" d="M378.6,398.6l1.9,1.2c0.3,0.2,0.8,0.2,1.1,0l1.8-1.1c0.3-0.2,0.3-0.5,0-0.7l-1.9-1.2
						c-0.3-0.2-0.8-0.2-1.1,0l-1.8,1.1C378.3,398.2,378.3,398.5,378.6,398.6z"/>
					<path class="st14" d="M382.1,400.8l1.9,1.2c0.3,0.2,0.8,0.2,1.1,0l1.8-1.1c0.3-0.2,0.3-0.5,0-0.7L385,399
						c-0.3-0.2-0.8-0.2-1.1,0l-1.8,1.1C381.8,400.3,381.8,400.6,382.1,400.8z"/>
					<path class="st14" d="M390.4,402.3l-1.9-1.2c-0.3-0.2-0.8-0.2-1.1,0l-1.8,1.1c-0.3,0.2-0.3,0.5,0,0.7l1.9,1.2
						c0.3,0.2,0.8,0.2,1.1,0l1.8-1.1C390.8,402.8,390.8,402.5,390.4,402.3z"/>
					<path class="st14" d="M398.6,407.3l-6.5-4c-0.3-0.2-0.8-0.2-1.1,0l-1.8,1.1c-0.3,0.2-0.3,0.5,0,0.7l6.5,4
						c0.3,0.2,0.8,0.2,1.1,0l1.8-1.2C398.9,407.8,398.9,407.5,398.6,407.3z"/>
					<path class="st14" d="M405.1,403l-2-1.2c-0.3-0.2-0.8-0.2-1.1,0l-1.8,1.1c-0.3,0.2-0.3,0.5,0,0.7l2,1.2c0.3,0.2,0.8,0.2,1.1,0
						l1.8-1.1C405.5,403.5,405.4,403.2,405.1,403z"/>
					<path class="st14" d="M371.8,379.4l-1.8-1c-0.3-0.2-0.8-0.2-1,0l-1.7,1c-0.3,0.2-0.3,0.5,0,0.6l1.8,1c0.3,0.2,0.8,0.2,1,0
						l1.7-1C372.1,379.9,372.1,379.6,371.8,379.4z"/>
					<path class="st14" d="M375.1,381.4l-1.8-1.1c-0.3-0.2-0.8-0.2-1,0l-1.7,1c-0.3,0.2-0.3,0.5,0,0.6l1.8,1.1
						c0.3,0.2,0.8,0.2,1.1,0l1.7-1C375.4,381.8,375.4,381.5,375.1,381.4z"/>
					<path class="st14" d="M378.4,383.3l-1.8-1.1c-0.3-0.2-0.8-0.2-1.1,0l-1.7,1c-0.3,0.2-0.3,0.5,0,0.6l1.8,1.1
						c0.3,0.2,0.8,0.2,1.1,0l1.7-1C378.7,383.8,378.7,383.5,378.4,383.3z"/>
					<path class="st14" d="M381.8,385.3l-1.8-1.1c-0.3-0.2-0.8-0.2-1.1,0l-1.7,1c-0.3,0.2-0.3,0.5,0,0.6l1.8,1.1
						c0.3,0.2,0.8,0.2,1.1,0l1.7-1.1C382.1,385.7,382.1,385.5,381.8,385.3z"/>
					<path class="st14" d="M385.2,387.3l-1.9-1.1c-0.3-0.2-0.8-0.2-1.1,0l-1.7,1.1c-0.3,0.2-0.3,0.5,0,0.6l1.9,1.1
						c0.3,0.2,0.8,0.2,1.1,0l1.7-1.1C385.5,387.8,385.5,387.5,385.2,387.3z"/>
					<path class="st14" d="M388.7,389.3l-1.9-1.1c-0.3-0.2-0.8-0.2-1.1,0l-1.7,1.1c-0.3,0.2-0.3,0.5,0,0.7l1.9,1.1
						c0.3,0.2,0.8,0.2,1.1,0l1.7-1.1C389,389.8,389,389.5,388.7,389.3z"/>
					<path class="st14" d="M392.2,391.4l-1.9-1.1c-0.3-0.2-0.8-0.2-1.1,0l-1.7,1.1c-0.3,0.2-0.3,0.5,0,0.7l1.9,1.1
						c0.3,0.2,0.8,0.2,1.1,0l1.7-1.1C392.5,391.8,392.5,391.5,392.2,391.4z"/>
					<path class="st14" d="M395.7,393.4l-1.9-1.1c-0.3-0.2-0.8-0.2-1.1,0l-1.7,1.1c-0.3,0.2-0.3,0.5,0,0.7l1.9,1.1
						c0.3,0.2,0.8,0.2,1.1,0l1.7-1.1C396,393.9,396,393.6,395.7,393.4z"/>
					<path class="st14" d="M396.5,397.3c0.3,0.2,0.8,0.2,1.1,0l1.7-1.1c0.3-0.2,0.3-0.5,0-0.7l-2-1.1c-0.3-0.2-0.8-0.2-1.1,0
						l-1.7,1.1c-0.3,0.2-0.3,0.5,0,0.7L396.5,397.3z"/>
					<path class="st14" d="M402.9,397.7l-2-1.2c-0.3-0.2-0.8-0.2-1.1,0l-1.7,1.1c-0.3,0.2-0.3,0.5,0,0.7l2,1.2
						c0.3,0.2,0.8,0.2,1.1,0l1.7-1.1C403.3,398.1,403.3,397.8,402.9,397.7z"/>
					<path class="st14" d="M408.7,401l-4.2-2.5c-0.2-0.1-0.5-0.1-0.7,0l-2.1,1.4c-0.2,0.1-0.2,0.3,0,0.4l4.2,2.5
						c0.2,0.1,0.5,0.1,0.7,0l2.1-1.4C408.9,401.3,408.9,401.2,408.7,401z"/>
				</g>
			</g>
		</g>
		<g>
			<path class="st6" d="M404.9,548.3c-5.6,1.7-10.8,4.7-16.4,6.1c-5,1.6-10.1,2.8-15.1,4.1c-3.2,0.8-6.4,1.9-9.1,3.9
				c-1.2,0.9-1,2.8-0.9,4.1c0.2,2.2,3.2,3.3,4.9,3.9c2.5,0.8,5.1,1.2,7.7,0.8c3.5-0.5,6.3-2.3,9.2-4.1c2.7-1.7,5.4-3.3,8.2-4.7
				c2.8-1.4,5.7-2.3,8.5-3.6c2.7-1.2,4.7-3.1,5-6.1c0.1-0.8,0.1-1.6,0-2.4c-0.1-0.7-0.4-1.5-1-2c-0.1-0.1-0.3-0.2-0.4-0.2
				c-0.1,0-0.3,0-0.4,0.1C405,548.2,405,548.2,404.9,548.3z"/>
			<path class="st7" d="M398.6,543.8c-0.9-0.1-1.8,0-2.7,0c-2.2,0.2-4.3,0.5-6.5,0.7c-2.3,0.2-4.6,0-6.9-0.2
				c-0.7-0.1-1.4-0.1-2.2-0.1c-5.8-0.1-11.7,3.6-14.6,8.7c0,0,0,0-0.1,0c-2.4,1-1.4,4.3-1.6,6.3c-0.1,1.4-0.8,2.9-0.7,4.3
				c0.1,1.2,0.9,1.9,1.8,2.6c3.5,2.4,8.3,3.4,12.4,2.2c3.2-0.9,5.9-2.8,8.8-4.5c3.6-2,7.2-4.1,11.1-5.6c2-0.8,4.1-1.4,5.9-2.6
				c2.3-1.6,4.1-4.3,2.9-7.1C404.9,545.2,401.9,544,398.6,543.8z"/>
			<path class="st8" d="M394.6,548c-1.7-1.3-3.7-2.6-5.7-3.5c-2.2,0.2-4.2,0-6.4-0.2c-0.7-0.1-1.4-0.1-2.2-0.1
				c-0.9,0.4-1.8,0.9-2.6,1.6c-0.1,0.1-0.1,0.2-0.2,0.3c-0.1,0.1-0.2,0.2-0.2,0.3c-0.4,0.5-0.7,1-0.9,1.6c-0.4,1.3,0.1,2.5,0.8,3.6
				c0.7,1.1,1.4,2.1,2.5,2.8c0.5,0.3,1,0.7,1.6,0.8c0.5,0.1,1.3,0.2,1.7-0.2c0.1-0.1,0.1-0.2,0.1-0.2c2.8-1.5,5.7-2.1,8.8-2.5
				c1.2-0.2,3.1-0.3,3.9-1.3C396.6,550,395.4,548.7,394.6,548z"/>
			<path class="st6" d="M377.4,530.7c-5.6,1.7-10.8,4.7-16.4,6.1c-5,1.6-10.1,2.8-15.1,4.1c-3.2,0.8-6.4,1.9-9.1,3.9
				c-1.2,0.9-1,2.8-0.9,4.1c0.2,2.2,3.2,3.3,4.9,3.9c2.5,0.8,5.1,1.2,7.7,0.8c3.5-0.5,6.3-2.3,9.2-4.1c2.7-1.7,5.4-3.3,8.2-4.7
				c2.8-1.4,5.7-2.3,8.5-3.6c2.7-1.2,4.7-3.1,5-6.1c0.1-0.8,0.1-1.6,0-2.4c-0.1-0.7-0.4-1.5-1-2c-0.1-0.1-0.3-0.2-0.4-0.2
				c-0.1,0-0.3,0-0.4,0.1C377.6,530.6,377.5,530.6,377.4,530.7z"/>
			<path class="st7" d="M371.1,526.2c-0.9-0.1-1.8,0-2.7,0c-2.2,0.2-4.3,0.5-6.5,0.7c-2.3,0.2-4.6,0-6.9-0.2
				c-0.7-0.1-1.4-0.1-2.2-0.1c-5.8-0.1-11.7,3.6-14.6,8.7c0,0,0,0-0.1,0c-2.4,1-1.4,4.3-1.6,6.3c-0.1,1.4-0.8,2.9-0.7,4.3
				c0.1,1.2,0.9,1.9,1.8,2.6c3.5,2.4,8.3,3.4,12.4,2.2c3.2-0.9,5.9-2.8,8.8-4.5c3.6-2,7.2-4.1,11.1-5.6c2-0.8,4.1-1.4,5.9-2.6
				c2.3-1.6,4.1-4.3,2.9-7.1C377.4,527.6,374.4,526.4,371.1,526.2z"/>
			<path class="st8" d="M366.9,533.8c0.8-1-0.4-2.3-1.2-2.9c-1.9-1.5-4.1-2.9-6.5-3.8c-1.4,0-2.8-0.1-4.2-0.3
				c-0.7-0.1-1.4-0.1-2.2-0.1c-0.2,0-0.4,0-0.6,0c-1.2,0.4-2.4,1.1-3.4,1.9c-0.1,0.1-0.1,0.2-0.2,0.3c-0.1,0.1-0.2,0.2-0.2,0.3
				c-0.4,0.5-0.7,1-0.9,1.6c-0.4,1.3,0.1,2.5,0.8,3.6c0.7,1.1,1.4,2.1,2.5,2.8c0.5,0.3,1,0.7,1.6,0.8c0.5,0.1,1.3,0.2,1.7-0.2
				c0.1-0.1,0.1-0.2,0.1-0.2c2.8-1.5,5.7-2.1,8.8-2.5C364.2,534.9,366.1,534.8,366.9,533.8z"/>
			<g class="st16">
				<path class="st4" d="M259.5,560.5c0.9-0.5,2.5-0.6,3.5-0.1l32.9,17l28.9-21.3c0.1,0,0.1-0.1,0.2-0.1c0.8-0.5,2.6-2.1,3.7-1.8
					c1.3,0.4,1.2,2.8,0.6,3.5l-19.4,23.7l47.8,6.8c0.3,0.1,1.2-1.2,1.4-1.1c0.7,0.3,0.5,2.2,0.4,2.8c-0.1,0.4-0.3,0.7-0.8,0.9
					c-0.5,0.3-1.3,0.5-2.2,0.4l-49.2-0.9l5.1,21.5l0,1.6c0.1,0.5-0.2,0.9-0.8,1.3c-0.3,0.2-0.6,0.3-1.1,0.4c-1.4,0.3-2.9-0.2-3.3-1
					l-15.3-22.2l-40,10.4c-1.1,0.3-2.4,0.2-3.2-0.4c-0.9-0.6-1.2-2.7-0.2-3.3c0.1,0,0.9-0.2,1-0.2l35.4-14.6l-25.6-21.2
					c-0.7-0.5-1.1-2.8-0.4-3.3C259,559.2,259.5,560.5,259.5,560.5"/>
			</g>
			<g>
				<g>
					<path class="st5" d="M357,577.2c2.9-1.6,5.2-0.3,5.2,2.9c0,3.3-2.3,7.2-5.1,8.9c-2.8,1.6-5.1,0.3-5.1-3
						C351.8,582.8,354.1,578.9,357,577.2"/>
				</g>
				<polygon class="st5" points="358.5,592.4 353.5,589.5 360.6,576.9 365.8,579.9 				"/>
				<g>
					<path class="st5" d="M362.2,580.3c2.9-1.6,5.2-0.3,5.2,2.9c0,3.3-2.3,7.2-5.1,8.9c-2.8,1.6-5.1,0.3-5.1-3
						C357,585.9,359.3,581.9,362.2,580.3"/>
				</g>
				<g>
					<path class="st6" d="M362.2,580.6c2.7-1.6,4.9-0.3,4.9,2.8c0,3.1-2.1,6.8-4.8,8.4c-2.7,1.5-4.8,0.3-4.9-2.8
						C357.3,585.9,359.5,582.1,362.2,580.6"/>
				</g>
			</g>
			<g>
				<g>
					<path class="st5" d="M308,601.9c2.9-1.6,5.2-0.3,5.2,2.9c0,3.3-2.3,7.2-5.1,8.9c-2.8,1.6-5.1,0.3-5.1-3
						C302.9,607.5,305.2,603.5,308,601.9"/>
				</g>
				<polygon class="st5" points="309.5,617.1 304.6,614.2 311.7,601.5 316.8,604.5 				"/>
				<g>
					<path class="st5" d="M313.2,604.9c2.9-1.6,5.2-0.3,5.2,2.9c0,3.3-2.3,7.2-5.1,8.9c-2.8,1.6-5.1,0.3-5.1-3
						C308.1,610.6,310.4,606.6,313.2,604.9"/>
				</g>
				<g>
					<path class="st6" d="M313.2,605.3c2.7-1.6,4.9-0.3,4.9,2.8c0,3.1-2.1,6.8-4.8,8.4c-2.7,1.5-4.8,0.3-4.9-2.8
						C308.4,610.6,310.5,606.8,313.2,605.3"/>
				</g>
			</g>
			<g>
				<g>
					<path class="st5" d="M247.9,589.1c2.9-1.6,5.2-0.3,5.2,2.9c0,3.3-2.3,7.2-5.1,8.9c-2.8,1.6-5.1,0.3-5.1-3
						C242.8,594.7,245.1,590.8,247.9,589.1"/>
				</g>
				<polygon class="st5" points="249.4,604.3 244.5,601.4 251.6,588.8 256.7,591.8 				"/>
				<g>
					<path class="st5" d="M253.1,592.2c2.9-1.6,5.2-0.3,5.2,2.9c0,3.3-2.3,7.2-5.1,8.9c-2.8,1.6-5.1,0.3-5.1-3
						C248,597.8,250.3,593.8,253.1,592.2"/>
				</g>
				<g>
					<path class="st6" d="M253.1,592.5c2.7-1.6,4.9-0.3,4.9,2.8c0,3.1-2.1,6.8-4.8,8.4c-2.7,1.5-4.8,0.3-4.9-2.8
						C248.3,597.8,250.5,594,253.1,592.5"/>
				</g>
			</g>
			<g>
				<g>
					<path class="st5" d="M257.2,550.9c2.9-1.6,5.2-0.3,5.2,2.9c0,3.3-2.3,7.2-5.1,8.9c-2.8,1.6-5.1,0.3-5.1-3
						C252.1,556.5,254.4,552.6,257.2,550.9"/>
				</g>
				<polygon class="st5" points="258.7,566.1 253.8,563.2 260.9,550.6 266,553.6 				"/>
				<g>
					<path class="st5" d="M262.4,554c2.9-1.6,5.2-0.3,5.2,2.9c0,3.3-2.3,7.2-5.1,8.9c-2.8,1.6-5.1,0.3-5.1-3
						C257.3,559.6,259.6,555.6,262.4,554"/>
				</g>
				<g>
					<path class="st6" d="M262.4,554.3c2.7-1.6,4.9-0.3,4.9,2.8c0,3.1-2.1,6.8-4.8,8.4c-2.7,1.5-4.8,0.3-4.9-2.8
						C257.6,559.6,259.7,555.8,262.4,554.3"/>
				</g>
			</g>
			<g>
				<g>
					<path class="st5" d="M326.3,544.5c2.9-1.6,5.2-0.3,5.2,2.9c0,3.3-2.3,7.2-5.1,8.9c-2.8,1.6-5.1,0.3-5.1-3
						C321.1,550.1,323.4,546.1,326.3,544.5"/>
				</g>
				<polygon class="st5" points="327.8,559.7 322.8,556.8 329.9,544.1 335.1,547.1 				"/>
				<g>
					<path class="st5" d="M331.5,547.5c2.9-1.6,5.2-0.3,5.2,2.9c0,3.3-2.3,7.2-5.1,8.9c-2.8,1.6-5.1,0.3-5.1-3
						C326.3,553.1,328.6,549.2,331.5,547.5"/>
				</g>
				<g>
					<path class="st6" d="M331.5,547.9c2.7-1.6,4.9-0.3,4.9,2.8c0,3.1-2.1,6.8-4.8,8.4c-2.7,1.5-4.8,0.3-4.9-2.8
						C326.6,553.2,328.8,549.4,331.5,547.9"/>
				</g>
			</g>
			<g>
				<path class="st13" d="M259.5,550.1c0.9-0.5,2.5-0.6,3.5-0.1l32.9,13.8l28.9-18c0.1,0,0.1-0.1,0.2-0.1c0.8-0.5,2.6-2.1,3.7-1.8
					c1.3,0.4,1.2,2.8,0.6,3.5l-19.4,20.5l47.8,10c0.3,0.1,1.2-1.2,1.4-1.1c0.7,0.3,0.5,2.2,0.4,2.8c-0.1,0.4-0.3,0.7-0.8,0.9
					c-0.5,0.3-1.3,0.5-2.2,0.4l-49.2-4.1l5.1,24.7l0,1.6c0.1,0.5-0.2,0.9-0.8,1.3c-0.3,0.2-0.6,0.3-1.1,0.4c-1.4,0.3-2.9-0.2-3.3-1
					l-15.3-25.4l-40,13.6c-1.1,0.3-2.4,0.2-3.2-0.4c-0.9-0.6-1.2-2.7-0.2-3.3c0.1,0,0.9-0.2,1-0.2l35.4-17.8l-25.6-18
					c-0.7-0.5-1.1-2.8-0.4-3.3C259,548.7,259.5,550.1,259.5,550.1"/>
			</g>
			<g>
				<path class="st14" d="M259.5,548.3c0.9-0.5,2.5-0.6,3.5-0.1l32.9,10l28.9-14.1c0.1,0,0.1-0.1,0.2-0.1c0.8-0.5,2-0.6,3.1-0.3
					c1.3,0.4,1.9,1.3,1.2,2.1l-19.4,16.6l47.8,13.9c1.2,0.2,1.9,0.9,1.8,1.6c-0.1,0.4-0.3,0.7-0.8,0.9c-0.5,0.3-1.3,0.5-2.2,0.4
					l-49.2-7.9l5.1,30.1c0.1,0.5-0.2,0.9-0.8,1.3c-0.3,0.2-0.6,0.3-1.1,0.4c-1.4,0.3-2.9-0.2-3.3-1l-15.3-29.4l-40,17.7
					c-1.1,0.3-2.4,0.2-3.2-0.4c-0.9-0.6-0.8-1.5,0.2-2.1c0.1,0,0.1-0.1,0.2-0.1l35.8-23.2l-25.6-14.2c-0.7-0.5-0.8-1.3,0-1.9
					C259.4,548.3,259.5,548.3,259.5,548.3"/>
			</g>
			<path class="st13" d="M306.3,548.5v15.4h0c0,1.3-0.9,2.6-2.6,3.6c-3.4,2-8.9,2-12.2,0c-1.7-1-2.5-2.3-2.5-3.6v-15L306.3,548.5z"
				/>
			<g>
				<path class="st14" d="M291.5,545.3c3.4-2,8.9-2,12.3,0c3.4,2,3.3,5.1-0.1,7.1c-3.4,2-8.9,2-12.2,0
					C288.1,550.4,288,547.2,291.5,545.3"/>
			</g>
			<path class="st11" d="M305.5,534.6v14.1h0c0,1.2-0.8,2.4-2.4,3.3c-3.1,1.8-8.1,1.8-11.2,0c-1.5-0.9-2.3-2.1-2.3-3.3v-13.8
				L305.5,534.6z"/>
			<g>
				<path class="st13" d="M292,531.6c3.1-1.8,8.2-1.8,11.3,0c3.1,1.8,3.1,4.7-0.1,6.5c-3.1,1.8-8.1,1.8-11.2,0
					C288.9,536.3,288.8,533.4,292,531.6"/>
			</g>
			<path class="st5" d="M266.3,498.2c14.6,21.4,68.2-27.8,68.2-27.8c-3.7,16.9,5.7,27.9,2.5,62.6c-0.1,0.7,0.1,1.5,0.6,2
				c1.1,1.5,3.5,4.1,6.7,4.7c5.7,1,9.1-1,10.5-2.3c0.6-0.5,0.9-1.1,1-1.9c0.6-6.5,4.2-43.1,4.8-56.4c0.4-10.2,2.1-31.3-14.5-34.8
				c-12-2.6-51.6,13-51.6,13S250.2,474.6,266.3,498.2z"/>
			<g>
				<path class="st8" d="M367.6,491.6l-49.9-28.8c-7.9-4.6-20.6-4.7-28.8-0.4L234.7,491c-8.8,4.6-9.1,12.6-0.6,17.5l54.9,31.7
					c8.5,4.9,22.2,4.7,30.2-0.4l49.1-31.5C375.8,503.5,375.5,496.2,367.6,491.6"/>
			</g>
			<path class="st19" d="M233.2,491.9c0.5-0.3,1-0.6,1.5-0.9l54.2-28.6c8.2-4.3,20.9-4.2,28.8,0.4l49.9,28.8
				c2.2,1.3,3.8,2.7,4.8,4.3c-4.5,5.2-14.5,7.5-20.1,9.8c-10.1,4.2-19,10.6-28,16.6c-4.5,3-8.9,6.4-14.2,7.6
				c-5.6,1.3-11.5,1-16.9-0.8c-9.1-3.2-16.2-10.7-24.5-15.6c-5-3-10.3-5.5-15.7-7.5c-4.4-1.6-8.8-3.6-13.1-5.7
				c-2.7-1.3-5.5-3.3-6.4-6.4C233.3,493.3,233.2,492.6,233.2,491.9z"/>
			<path class="st20" d="M320.6,328c0-1.2-2.7-6.3-3.9-8.6c-1.1-7.6-2.4-13.6-2.4-13.6c-8.5-7.2-28.8,24.2-28.8,24.2l-2.2,28.9
				c10.9,10.1,21.1,4.4,21.1,4.4c0.2-13.1,8.8-10.6,12.6-16.3c1.7-2.4,1.7-9,1-16.2C319.3,329.9,320.6,328.8,320.6,328z"/>
			<path class="st6" d="M284,352.4c10.5,3.2,16.4-1.6,19.4-10.4c0,0,0.7-1-3.3-2.3c-4-1.2-5.6-13.6-1.5-12.7c4.1,1,3.9,6.6,5.7,7.1
				s2.7-1.2,1.4-5.1c-1.3-4,6.3-4.9,3.9-9.4c-2.4-4.6-0.8-9.7,4-11.9c4.8-2.2,1.7-20.6-2-19.6c-3.7,1.1-4.4,4.7-6.6,0.5
				c-2.2-4.2-3.9-7.4-7.2-5.6c-3.3,1.9-1.2,4.3-5,2.8c-3.8-1.6-4.6-0.5-5.9,2.3c-1.3,2.7,0.9,4.3-3.5,4.7c-4.4,0.4-3,4.3-7.2,7.9
				c-4.2,3.7-11.7,5.4-11,18.4S274.5,349.5,284,352.4z"/>
			<path class="st7" d="M321.8,340.5c-0.1-0.5-0.6-0.5-1-0.5c-0.6,0-1.2-0.1-1.8-0.1c-1.8-0.1-3.5-0.2-5.3-0.6
				c-1.3-0.3-2.5-0.7-3.7-1.2c-0.6-0.2-1.2-0.5-1.8-0.8c-0.5-0.3-1.1-0.6-1.7-0.7c-0.4-0.1-0.7,0.2-0.8,0.6
				c-0.2,0.8,0.8,1.1,1.4,1.4c0.8,0.4,1.6,0.8,2.4,1.2c3.2,1.3,6.7,2.2,10.1,2.1c0.5,0,1.1-0.1,1.6-0.3c0.4-0.1,0.6-0.4,0.6-0.8
				C321.8,340.7,321.8,340.6,321.8,340.5z"/>
			<path class="st5" d="M327.1,340.5c-0.1-0.8-0.5-1.6-1.2-1.8c-0.3-0.1-0.6-0.1-0.9-0.1c-0.9,0-1.8,0.1-2.7,0.2
				c-0.8,0.1-1.8,0.3-2.3,1c-0.4,0.5-0.3,1.3-0.1,1.9c0.3,0.7,0.9,0.9,1.6,1c1.2,0.2,2.5,0.3,3.7,0c0.9-0.2,1.7-0.8,1.8-1.8
				C327.1,340.8,327.1,340.6,327.1,340.5z"/>
			<g>
				<g>
					<path class="st5" d="M300.4,325.9c3.1-1.8,5.6-0.3,5.6,3.2c0,3.6-2.5,7.9-5.6,9.7c-3.1,1.8-5.6,0.4-5.6-3.2
						C294.8,332.1,297.3,327.7,300.4,325.9"/>
				</g>
				<polygon class="st5" points="302.1,342.5 296.7,339.3 304.4,325.5 310,328.8 				"/>
				<g>
					<path class="st5" d="M306.1,329.2c3.1-1.8,5.6-0.3,5.6,3.2c0,3.6-2.5,7.9-5.6,9.7c-3.1,1.8-5.6,0.4-5.6-3.2
						C300.5,335.4,303,331,306.1,329.2"/>
				</g>
				<g>
					<path class="st6" d="M306.1,329.6c2.9-1.7,5.3-0.3,5.3,3c0,3.4-2.4,7.5-5.3,9.2c-2.9,1.7-5.3,0.3-5.3-3
						C300.8,335.4,303.2,331.3,306.1,329.6"/>
				</g>
				<g>
					<path class="st21" d="M306.1,330.5c2.4-1.5,4.3-0.3,4.3,2.6c0,2.9-1.9,6.4-4.3,7.9c-2.4,1.4-4.3,0.3-4.3-2.6
						C301.8,335.4,303.7,331.9,306.1,330.5"/>
				</g>
			</g>
			<path class="st20" d="M275.8,402.1l-0.9,9.6c7.6-3.1,15.2-6.3,22.8-9.5c3.5-1.5,6.9-2.9,10.2-4.8c1.8-1,3.6-1.9,5.1-3.2
				c1.9-1.7,2.4-3.4,2.7-5.8c0.2-1.2,0.8-2.9,2.3-2.7c0.9,0.2,1.3,1.5,2.1,1.4c0.9-0.1,1.9-0.9,2.6-1.4c0.9-0.6,1.7-1.2,2.6-1.6
				c1-0.4,2.1-0.6,3.2-0.4c0.3,0,0.5,0.1,0.7,0.3c0.2,0.2,0.2,0.5,0.1,0.7c0.8-0.2,1.7-0.3,2.5-0.1c0.4,0.1,0.8,0.2,1.1,0.5
				c0.3,0.3,0.4,0.8,0.2,1.1c0.6-0.1,1.2-0.2,1.8,0c0.6,0.1,1.1,0.5,1.3,1c0.3,0.8-0.1,1.7-0.5,2.4c0.3-0.1,0.7-0.2,1-0.1
				c0.4,0.1,0.6,0.5,0.7,0.9c0.1,0.4,0,0.8-0.2,1.1c-0.2,0.5-0.5,0.9-0.8,1.2c-0.3,0.4-0.7,0.6-1.2,0.9c-1.7,1.2-3.4,2.5-5.2,3.6
				c-2.4,1.5-4.9,3.1-7.3,4.6c-5.1,3.2-10.5,6.3-15.4,9.8c-4.8,3.5-9.9,6.8-15,9.9c-7.1,4.4-14.5,9.1-22.3,12.2
				c-1.1,0.4-2.2,0.9-3.4,0.9c-9.1,0-12.4-9-11.3-28.5L275.8,402.1z"/>
			<path class="st22" d="M277.2,409.6c0,0-8.1,4.8-23.8,5c0,0,0.3-38.3,10.1-47C273.3,358.9,278.4,382.8,277.2,409.6z"/>
			<path class="st6" d="M372.8,458.8c-12-2.6-53.8,8.6-53.8,8.6l-59.6-6.7c0,0-5.1,24.8,0.2,34.8c5.3,9.9,19.9,15.7,34.1,20.1
				c24.7,7.7,68.2-27.8,68.2-27.8c0,0.2-0.1,0.4-0.1,0.6l0,0l5.6,3.2c7.9,4.6,8.2,11.9,0.8,16.7l-5,3.2v0c1.8,9.5,3.8,21.4,2.1,39.5
				c-0.1,0.6,0.1,1.3,0.4,1.8c0.8,1.3,2.7,3.7,6,4.3c5.7,1,9.9-1,11.8-2.2c0.8-0.5,1.3-1.3,1.3-2.2c0.4-7.3,2.6-43.1,3.1-56.1
				C388.5,486.4,389.4,462.3,372.8,458.8z"/>
			<path class="st6" d="M259.5,460.6c0,0-1.8,9-2.1,18.4l29.1-15.3L259.5,460.6z"/>
			<path class="st8" d="M323.6,466.2l-5.9-3.4c-7.9-4.6-20.6-4.7-28.8-0.4l-2.4,1.3l32.6,3.7C319.1,467.4,320.8,466.9,323.6,466.2z"
				/>
			<g>
				<path class="st23" d="M362,488.4L362,488.4l4.9,2.8c0,0,0,0,0,0c0.1-1.6,0.6-3.1,0.8-4.6c0.1-0.8,0.3-1.6-0.3-2.3
					c-1.4-1.5-4.2,0.1-5.7,0.7c-6.6,2.6-12.9,5.7-19.1,9.1c-6.4,3.5-12.7,6.9-20,8.3c-7.7,1.4-16.1,1.9-23.8,0.3
					c-7.5-1.6-18.3-6.2-22.5-12.8c-5.2-8.2-4.3-26.3-4.3-26.3c-0.1-0.6-0.3-1.1-0.5-1.6l-12-1.4c0,0-5.1,24.8,0.2,34.8
					c5.3,9.9,19.9,15.7,34.1,20.1c24.7,7.7,68.2-27.8,68.2-27.8C362.1,488,362,488.2,362,488.4z"/>
				<path class="st23" d="M371.6,530.2c0.1-7.7-1.8-14.8-3.2-22c0,0,0,0,0,0l-5,3.2v0c1.8,9.5,3.8,21.4,2.1,39.5
					c-0.1,0.6,0.1,1.3,0.4,1.8c0.8,1.3,2.7,3.7,6,4.3c0.4,0.1,0.8,0.1,1.1,0.1c-0.2-1.2-0.4-2.4-0.5-3.7
					C372,546.1,371.5,537.7,371.6,530.2z"/>
			</g>
			<path class="st10" d="M322.9,379.5c0,0-9.6-12.1-18.5-16.3c0,0-6.3-0.6-12.2-1.1c-5.1-0.4-8.9-3.3-8.9-3.3s-11.7,2.7-16.9,6.8
				c-5.5,4.3-10.8,25.1-8.6,41.9c2.1,16.9,0.8,40.6,0,46.8c-1.6,12,9.9,23.2,25,24.3c19.8,1.4,41.9-3.4,41.2-13.2
				C322.4,444,322.9,379.5,322.9,379.5z"/>
			<path class="st20" d="M332.1,427.4l0.4,9.8c7.6-3.1,15.2-6.3,22.8-9.5c3.5-1.5,6.9-2.9,10.2-4.8c1.8-1,3.6-1.9,5.1-3.2
				c1.9-1.7,2.4-3.4,2.7-5.8c0.2-1.2,0.8-2.9,2.3-2.7c0.9,0.2,1.3,1.5,2.1,1.4c0.9-0.1,1.9-0.9,2.6-1.4c0.9-0.6,1.7-1.2,2.6-1.6
				c1-0.4,2.1-0.6,3.2-0.4c0.3,0,0.5,0.1,0.7,0.3c0.2,0.2,0.2,0.5,0.1,0.7c0.8-0.2,1.7-0.3,2.5-0.1c0.4,0.1,0.8,0.2,1.1,0.5
				c0.3,0.3,0.4,0.8,0.2,1.1c0.6-0.1,1.2-0.2,1.8,0c0.6,0.1,1.1,0.5,1.3,1c0.3,0.8-0.1,1.7-0.5,2.4c0.3-0.1,0.7-0.2,1-0.1
				c0.4,0.1,0.6,0.5,0.7,0.9c0.1,0.4,0,0.8-0.2,1.1c-0.2,0.5-0.5,0.9-0.8,1.2c-0.3,0.4-0.7,0.6-1.2,0.9c-1.7,1.2-3.4,2.5-5.2,3.6
				c-2.4,1.5-4.9,3.1-7.3,4.6c-5.1,3.2-10.5,6.3-15.4,9.8c-4.8,3.5-9.9,6.8-15,9.9c-7.1,4.4-14.5,9.1-22.3,12.2
				c-1.1,0.4-2.2,0.9-3.4,0.9c-9.1,0-12.9-10-11.8-29.6L332.1,427.4z"/>
			<path class="st22" d="M335.3,428.3c0,0-10.1,5.9-25.8,7.1c0,0-2.3-44,6.9-54.4C325.7,370.5,335,397.8,335.3,428.3z"/>
			<path class="st24" d="M222.9,408.8c0.6,0.3,1.1,0.2,1.6-0.1c1,10,5,19.8,8.7,29c8.9,21.9,22.5,42,37.7,59.9
				c3.1,3.7,5.9,8.5,10.1,11c4.8,2.8,11.2,2,14.9-2.2c2.6-2.9,3.8-6.8,4.3-10.7c1.5-10.2,1.7-20.7,0.8-31c-0.8-9.5,0.4-19.5-3-28.5
				c-2.9-7.6-8.9-13.8-15.4-18.4c-6.8-4.9-14.6-8.2-22-11.9c-6.7-3.3-13.5-8-21-9c-4.8-0.6-12.1-0.8-16.1,2.6
				C220.5,401.8,219.2,406.6,222.9,408.8z"/>
			<g>
				<path class="st8" d="M231.3,401.4l49.8,28.7c6.4,3.7,11.6,12.7,11.6,20.1l-0.1,52.4c0,7.4-5.2,10.3-11.7,6.6l-49.8-28.7
					c-6.4-3.7-11.6-12.7-11.6-20.1l0.1-52.4C219.7,400.6,224.9,397.7,231.3,401.4"/>
			</g>
			<path class="st14" d="M246.9,526.2l14.3,8.2l-1.7-88.6c0-0.5-0.3-1-0.7-1.2l-12.9-7.5c-1-0.6-2.2,0.1-2.2,1.2v82.4
				C243.8,523,245,525,246.9,526.2z"/>
			<polygon class="st11" points="271.2,529.9 261.2,524.1 260.4,531.1 264.4,534.3 			"/>
			<path class="st13" d="M271.2,529.9l-4.3,2.5c-3.1,1.8-5.7,0.4-5.7-3.2l-0.2-83.7c0-0.8-0.5-1.6-1.2-2l-12.5-7
				c-0.5-0.3-1.1-0.3-1.6,0l-1.2,0.6c0,0,0.7-0.3,1.3,0.1l12.4,7.3c0.7,0.4,1.1,1.2,1.1,2l0.2,83.8c0,4.6,3.3,6.5,7.3,4.2l5.9-3.4
				L271.2,529.9z"/>
			<g>
				<polygon class="st11" points="333.8,531.6 332.6,531.2 330.9,496 336.3,495.3 				"/>
				<polygon class="st13" points="333.8,531.6 333.6,495 344,489.9 341.8,527 				"/>
				<path class="st13" d="M358.1,485.8v-3l-1.2,0.4l-1.6-3.5c-0.1-0.3-0.4-0.5-0.7-0.7c-1-0.6-2.6-0.6-3.7,0l-25,14.5l-9.3,3.1v3
					l0,0c0,0.4,0.3,0.7,0.8,1c0.3,0.2,0.7,0.3,1.2,0.4l10.5,1.6c0.9,0.5,8-2.9,16-7.5C353.2,490.5,358.9,486.3,358.1,485.8z"/>
				<g>
					<path class="st14" d="M354.7,476c-1-0.6-2.6-0.6-3.7,0l-33.5,19.5c-1.1,0.6-0.9,1.6,0,2.1c0.3,0.2,0.7,0.3,1.2,0.4l10.5,1.6
						c0.9,0.5,8-2.9,16-7.5c8-4.6,13.8-8.8,12.9-9.3l-2.8-6.1C355.2,476.4,355,476.2,354.7,476"/>
				</g>
			</g>
			<path class="st22" d="M280.1,359.6l3.5-5c0,0,8.8,4.5,21.4,3.7l2.6,6.6C307.6,364.9,288.2,367,280.1,359.6z"/>
			<path class="st5" d="M298.2,331.9c0,0,2-14.5-4.3-21.2c-6.3-6.7-18.1-9.8-21.5-6.9c0,0,1.3-4.1,6.6-6.4c0,0,24.8-7.6,26.1,30.1
				L298.2,331.9z"/>
		</g>
	</g>
</g>
</svg>
